<svg width="20" height="20" viewBox="0 0 20 20" fill="none" xmlns="http://www.w3.org/2000/svg">
<path d="M15.8333 17.4998V15.8332C15.8333 15.1701 15.5698 14.5344 15.1009 14.0656C14.6321 13.5968 13.9964 13.3332 13.3333 13.3332H6.66667C6.00363 13.3332 5.36793 13.5968 4.89909 14.0656C4.43025 14.5344 4.16667 15.1701 4.16667 15.8332V17.4998C4.16667 17.9601 3.79357 18.3332 3.33333 18.3332C2.8731 18.3332 2.5 17.9601 2.5 17.4998V15.8332C2.5 14.7281 2.9393 13.6686 3.7207 12.8872C4.5021 12.1058 5.5616 11.6665 6.66667 11.6665H13.3333C14.4384 11.6665 15.4979 12.1058 16.2793 12.8872C17.0607 13.6686 17.5 14.7281 17.5 15.8332V17.4998C17.5 17.9601 17.1269 18.3332 16.6667 18.3332C16.2064 18.3332 15.8333 17.9601 15.8333 17.4998ZM12.5 5.83317C12.5 4.45246 11.3807 3.33317 10 3.33317C8.61929 3.33317 7.5 4.45246 7.5 5.83317C7.5 7.21388 8.61929 8.33317 10 8.33317C11.3807 8.33317 12.5 7.21388 12.5 5.83317ZM14.1667 5.83317C14.1667 8.13436 12.3012 9.99984 10 9.99984C7.69881 9.99984 5.83333 8.13436 5.83333 5.83317C5.83333 3.53198 7.69881 1.6665 10 1.6665C12.3012 1.6665 14.1667 3.53198 14.1667 5.83317Z" fill="currentColor"/>
</svg>
