<svg width="20" height="20" viewBox="0 0 20 20" fill="none" xmlns="http://www.w3.org/2000/svg">
<path d="M17.6466 4.26401C18.4349 4.54103 19 5.29202 19 6.175V15.175C19 17.2875 17.2875 19 15.175 19H6.175C5.29202 19 4.54103 18.4349 4.26401 17.6466L6.15157 17.6496L15.175 17.65C16.5419 17.65 17.65 16.5419 17.65 15.175V6.175L17.6464 6.12912L17.6466 4.26401ZM14.7221 1C15.8405 1 16.7471 1.90662 16.7471 3.025V14.7221C16.7471 15.8405 15.8405 16.7471 14.7221 16.7471H3.025C1.90662 16.7471 1 15.8405 1 14.7221V3.025C1 1.90662 1.90662 1 3.025 1H14.7221ZM8.875 5.275C8.53327 5.275 8.25086 5.52894 8.20616 5.85841L8.2 5.95V8.2H5.95C5.57721 8.2 5.275 8.50221 5.275 8.875C5.275 9.21673 5.52894 9.49914 5.85841 9.54384L5.95 9.55H8.2V11.8C8.2 12.1728 8.50221 12.475 8.875 12.475C9.21673 12.475 9.49914 12.2211 9.54384 11.8916L9.55 11.8V9.55H11.8C12.1728 9.55 12.475 9.24779 12.475 8.875C12.475 8.53327 12.2211 8.25086 11.8916 8.20616L11.8 8.2H9.55V5.95C9.55 5.57721 9.24779 5.275 8.875 5.275Z" fill="currentColor"/>
</svg>
