<svg width="20" height="20" viewBox="0 0 20 20" fill="none" xmlns="http://www.w3.org/2000/svg">
<path d="M16.6665 10.8333C16.6665 10.3731 16.2934 9.99998 15.8332 9.99998H4.1665C3.70627 9.99998 3.33317 10.3731 3.33317 10.8333V16.6666C3.33317 17.1269 3.70627 17.5 4.1665 17.5H15.8332C16.2934 17.5 16.6665 17.1269 16.6665 16.6666V10.8333ZM13.3332 5.83331C13.3332 4.94926 12.9817 4.10166 12.3566 3.47654C11.7315 2.85142 10.8839 2.49998 9.99984 2.49998C9.11578 2.49998 8.26819 2.85142 7.64307 3.47654C7.01795 4.10166 6.6665 4.94926 6.6665 5.83331V8.33331H13.3332V5.83331ZM14.9998 8.33331H15.8332C17.2139 8.33331 18.3332 9.4526 18.3332 10.8333V16.6666C18.3332 18.0474 17.2139 19.1666 15.8332 19.1666H4.1665C2.78579 19.1666 1.6665 18.0474 1.6665 16.6666V10.8333C1.6665 9.4526 2.78579 8.33331 4.1665 8.33331H4.99984V5.83331C4.99984 4.50723 5.527 3.23584 6.46468 2.29816C7.40236 1.36047 8.67375 0.833313 9.99984 0.833313C11.3259 0.833313 12.5973 1.36047 13.535 2.29816C14.4727 3.23584 14.9998 4.50723 14.9998 5.83331V8.33331Z" fill="currentColor"/>
</svg>
