<svg width="20" height="20" viewBox="0 0 20 20" fill="none" xmlns="http://www.w3.org/2000/svg">
<path d="M1.66675 15.8333V4.16666C1.66675 3.50362 1.93033 2.86792 2.39917 2.39908C2.86801 1.93024 3.50371 1.66666 4.16675 1.66666H7.50008C7.96032 1.66666 8.33341 2.03975 8.33341 2.49999C8.33341 2.96023 7.96032 3.33332 7.50008 3.33332H4.16675C3.94573 3.33332 3.73384 3.42118 3.57756 3.57746C3.42128 3.73374 3.33341 3.94564 3.33341 4.16666V15.8333C3.33341 16.0543 3.42127 16.2662 3.57756 16.4225C3.73384 16.5788 3.94573 16.6667 4.16675 16.6667H7.50008C7.96032 16.6667 8.33341 17.0398 8.33341 17.5C8.33341 17.9602 7.96032 18.3333 7.50008 18.3333H4.16675C3.50371 18.3333 2.86801 18.0697 2.39917 17.6009C1.93033 17.1321 1.66675 16.4964 1.66675 15.8333ZM12.7442 5.24413C13.0697 4.91869 13.5972 4.91869 13.9226 5.24413L18.0893 9.4108C18.4147 9.73623 18.4147 10.2637 18.0893 10.5892L13.9226 14.7558C13.5972 15.0813 13.0697 15.0813 12.7442 14.7558C12.4188 14.4304 12.4188 13.9029 12.7442 13.5775L15.4884 10.8333H7.50008C7.03984 10.8333 6.66675 10.4602 6.66675 9.99999C6.66675 9.53975 7.03984 9.16666 7.50008 9.16666H15.4884L12.7442 6.42252C12.4188 6.09708 12.4188 5.56957 12.7442 5.24413Z" fill="currentColor"/>
</svg>
