<svg width="42" height="46" viewBox="0 0 42 46" fill="none" xmlns="http://www.w3.org/2000/svg">
<path d="M32.678 43.6793C32.7102 43.7172 32.8319 43.7358 32.9693 43.7449C33.2024 43.7605 33.323 43.7721 34.0096 43.8455C35.002 43.9516 36.2955 44.2529 36.5759 44.4432C36.8386 44.6215 36.8066 44.8006 36.4829 44.963C35.9806 45.215 35.0957 45.4036 33.5241 45.5937C32.8281 45.6779 32.6887 45.6927 32.3173 45.7218C32.1113 45.7379 31.8866 45.7569 31.8179 45.764C31.6067 45.7859 30.0227 45.8856 29.6262 45.9021C27.852 45.9756 26.3061 46 23.4256 46C20.9966 46 18.8259 45.9735 17.8493 45.9318C17.4722 45.9157 16.5309 45.8722 16.0321 45.8479C15.3815 45.8162 14.3225 45.7374 13.563 45.6643C12.8472 45.5954 12.3108 45.5363 12.051 45.4978C11.9594 45.4842 11.7846 45.4586 11.6626 45.4408C11.3411 45.3939 10.8573 45.3065 10.6569 45.2591C10.5615 45.2365 10.3992 45.1986 10.2962 45.1749C9.76956 45.0534 9.5055 44.9494 9.34959 44.8021C9.26974 44.7265 9.25859 44.7007 9.27346 44.6258C9.29721 44.506 9.33155 44.4707 9.51082 44.3808C10.12 44.0759 12.2775 43.7543 14.319 43.6645C14.4184 43.6601 14.5178 43.6557 14.6172 43.6513C14.6331 44.1228 14.6452 44.1728 14.7373 44.3606C14.8125 44.514 14.8781 44.6021 14.9786 44.6848C15.0245 44.7227 15.0706 44.7605 15.1166 44.7984C15.4402 44.9774 15.7653 45.0778 16.2456 45.1468C17.7214 45.3589 19.6125 45.2226 20.35 44.851C20.5657 44.7424 20.7908 44.5194 20.8764 44.3298C20.8985 44.2808 20.9205 44.2318 20.9426 44.1829C20.9519 44.1735 20.9611 44.1643 20.9704 44.1549C21.0128 44.0201 21.0315 43.8816 21.0393 43.7602C21.0441 43.6866 21.0488 43.6131 21.0536 43.5394C24.999 43.5671 26.1788 43.5734 26.2208 43.5713C26.2462 43.57 26.2716 43.5687 26.2971 43.5674C26.3546 44.0241 26.4097 44.1994 26.5604 44.4064C26.8724 44.8351 27.6261 45.0679 29.0563 45.1772C29.9319 45.2441 30.9169 45.2166 31.6106 45.1058C31.8115 45.0737 32.1566 44.9587 32.2338 44.898C32.2524 44.8834 32.271 44.8689 32.2896 44.8543C32.5946 44.5759 32.7359 44.225 32.6957 43.846C32.6897 43.7904 32.6838 43.7349 32.678 43.6793Z" fill="#FEFCEE"/>
<path d="M29.6262 42.0567C30.3142 42.0742 30.514 42.0868 30.514 42.096C30.514 42.1015 30.514 42.1071 30.514 42.1126C29.826 42.099 29.6262 42.0864 29.6262 42.0759C29.6262 42.0695 29.6262 42.0631 29.6262 42.0567Z" fill="#030606"/>
<path d="M31.4295 42.3364C31.9162 42.5543 32.1069 42.6837 32.2965 42.9244C32.3404 42.9802 32.3843 43.036 32.4283 43.0918C32.0349 42.6864 31.946 42.6138 31.6445 42.4519C31.5728 42.4134 31.5012 42.3749 31.4295 42.3364Z" fill="#030606"/>
<path d="M30.5417 42.1126C30.6778 42.1126 31.2257 42.2398 31.3255 42.2946C31.3509 42.3085 31.3764 42.3224 31.4018 42.3364C30.918 42.2116 30.7245 42.1612 30.6597 42.144C30.6204 42.1335 30.581 42.1231 30.5417 42.1126Z" fill="#030606"/>
<path d="M35.5557 27.1074C35.6639 27.2006 35.7021 27.2528 35.7021 27.3074C35.7021 27.4172 35.4159 29.434 35.1057 31.5096C35.0517 31.8711 34.9954 32.2488 34.9806 32.3489C34.9658 32.4489 34.929 32.6944 34.8988 32.8944C34.8687 33.0944 34.7811 33.6799 34.7044 34.1953C34.5389 35.3062 34.4947 35.5419 34.4269 35.6759C34.3594 35.8095 34.2011 35.9625 34.0876 36.004C33.9708 36.0467 33.7588 36.0505 33.6578 36.0118C33.5751 35.9801 32.9448 35.8183 32.0955 35.6107C29.5486 34.9884 28.6393 34.7506 28.5927 34.6946C28.5659 34.6625 28.516 34.5464 28.4821 34.4367C28.4294 34.2669 28.4206 34.177 28.4224 33.8316C28.4319 32.0457 29.5309 29.9475 31.1938 28.5405C32.4387 27.4872 33.5643 26.9754 34.7363 26.9298C35.2415 26.9101 35.3554 26.9349 35.5557 27.1074Z" fill="#D6D9B4"/>
<path d="M15.1722 44.7704C15.1638 44.7652 15.1554 44.7601 15.147 44.7549C15.0745 44.7104 14.9366 44.5541 14.8518 44.4205C14.7308 44.2298 14.6893 44.0361 14.7085 43.7528C14.7211 43.5668 14.7422 43.4928 14.8363 43.3013C15.0476 42.871 15.4124 42.5581 15.9565 42.3401C16.3546 42.1806 16.4607 42.1635 17.4821 42.0935C17.5538 42.0885 17.6255 42.0836 17.6973 42.0787C17.6559 41.6997 17.6144 41.3207 17.573 40.9416C17.4429 39.7519 17.3738 39.142 17.1589 37.2867C17.1375 37.102 17.1117 36.8478 17.1014 36.7218C17.0953 36.6453 17.0891 36.569 17.0829 36.4926C17.1136 36.488 17.1441 36.4835 17.1748 36.4789C17.2657 36.4655 18.5918 36.4123 19.6388 36.3801C19.9363 36.371 20.2172 36.3702 20.263 36.3785C20.3411 36.3925 20.3467 36.4021 20.3534 36.5323C20.3573 36.6087 20.3852 36.9167 20.4153 37.2167C20.4657 37.7186 20.5093 38.2455 20.5825 39.231C20.5978 39.4387 20.623 39.7346 20.6382 39.8885C20.6535 40.0424 20.6913 40.4767 20.7224 40.8537C20.7731 41.4689 20.8149 41.9279 20.9178 42.9939C20.9356 43.1785 20.9548 43.5152 20.9705 44.1549C20.9612 44.1642 20.952 44.1735 20.9427 44.1829C20.9421 44.1759 20.9414 44.1689 20.9408 44.1619C20.9397 44.1504 20.8993 44.2039 20.8511 44.2808C20.7146 44.4982 20.5887 44.6241 20.3903 44.7416C19.9453 45.0051 18.9331 45.1726 17.7939 45.1713C16.5607 45.1699 15.6974 45.0379 15.1722 44.7704ZM20.3976 37.4266C20.3767 37.2727 20.3504 36.9831 20.3391 36.7831C20.3322 36.6619 20.3254 36.5407 20.3185 36.4194C20.2075 36.4187 20.0966 36.4179 19.9856 36.4172C19.8025 36.4159 19.4092 36.4253 19.1117 36.438C18.8142 36.4506 18.4293 36.4667 18.2564 36.4736C18.0835 36.4806 17.9262 36.4995 17.9067 36.5158C17.869 36.5473 17.555 36.5536 17.3155 36.5277C17.1944 36.5146 17.167 36.52 17.1517 36.5601C17.1151 36.6563 17.2466 37.8651 17.2995 37.9183C17.3125 37.9315 17.3886 37.9107 17.4692 37.8717C17.9635 37.6332 19.3784 37.5977 20.1492 37.8044C20.2697 37.8367 20.3775 37.853 20.3889 37.8407C20.4321 37.7933 20.4342 37.6969 20.3976 37.4266ZM16.5871 43.2317C16.8014 43.0547 16.8285 42.8639 16.6629 42.6969C16.585 42.6184 16.5639 42.6113 16.4432 42.623C16.3697 42.6301 16.3096 42.6441 16.3096 42.6541C16.3096 42.6601 16.3096 42.6661 16.3096 42.6721C16.2909 42.6818 16.272 42.6913 16.2533 42.7009C16.2222 42.7167 16.1723 42.7671 16.0877 42.896C16.0877 42.9279 16.0877 42.9598 16.0877 42.9917C16.0877 43.1158 16.196 43.2476 16.3166 43.2704C16.3665 43.2799 16.4476 43.275 16.5871 43.2317Z" fill="#2B4422"/>
<path d="M38.3307 7.57186C38.413 7.69602 38.4209 7.72685 38.4209 7.92374C38.4209 8.04236 38.4018 8.27703 38.3784 8.44511C38.3048 8.9756 37.9011 11.6751 37.7409 12.7094C37.6562 13.2556 37.5599 13.8874 37.5268 14.1132C37.5067 14.25 37.4866 14.3869 37.4665 14.5238C37.3874 14.5307 37.3084 14.5376 37.2293 14.5445C37.0106 14.5636 36.9614 14.5573 36.598 14.4637C36.3812 14.4078 36.1003 14.3211 35.9738 14.2709C35.7329 14.1755 34.9574 13.7876 34.823 13.6953C34.78 13.6658 34.6366 13.571 34.5043 13.4845C33.1209 12.581 32.0231 11.0545 31.7106 9.60015C31.562 8.90851 31.6252 8.4506 31.9072 8.17458C32.1993 7.88877 32.9872 7.61304 34.0097 7.43869C35.5086 7.18315 37.6603 7.14936 38.1157 7.37423C38.1984 7.41502 38.271 7.48177 38.3307 7.57186Z" fill="#D6D9B4"/>
<path d="M19.7276 4.80403C19.8079 4.971 19.809 4.97989 19.795 5.32361C19.7781 5.73733 19.7059 6.17029 19.5707 6.66956C19.2733 7.76735 18.7968 8.61185 18.0356 9.38999C17.3111 10.1307 16.5644 10.5507 15.6161 10.751C15.2525 10.8278 14.7964 10.8534 14.5847 10.809C14.3105 10.7514 14.0967 10.5346 14.0502 10.2672C14.04 10.2089 14.0573 9.76823 14.0885 9.28804C14.1198 8.80791 14.1766 7.91143 14.2148 7.29595C14.3857 4.54637 14.4496 3.72565 14.5041 3.58096C14.5485 3.46312 14.6725 3.34204 14.7981 3.29364C14.9005 3.25425 14.985 3.2486 15.2897 3.2608C15.6873 3.2768 15.9559 3.31888 16.5177 3.45294C17.8678 3.77523 19.1965 4.25486 19.5383 4.54329C19.5989 4.59449 19.6815 4.70824 19.7276 4.80403Z" fill="#D6D9B4"/>
<path d="M22.1634 2.88965C22.4752 3.05046 22.5844 3.1115 22.6073 3.12913C22.6302 3.14675 22.7426 3.21211 22.857 3.27438C23.2289 3.47682 23.4515 3.60115 23.5549 3.66432C23.6106 3.69839 23.7768 3.78892 23.9242 3.86552C24.0716 3.94212 24.207 4.01721 24.2252 4.03237C24.2786 4.07702 25.3491 4.61406 25.5758 4.70985C25.8907 4.84296 26.2523 4.98072 26.5607 5.08502C26.8086 5.16883 26.9129 5.20028 27.2682 5.29814C27.3215 5.31286 27.4277 5.33686 27.504 5.35141C27.5803 5.36596 27.7296 5.39707 27.8359 5.42051C28.1808 5.49649 28.6595 5.54948 29.12 5.56257C29.2703 5.56683 29.4206 5.57108 29.5708 5.57539C29.5719 5.58238 29.5729 5.58938 29.5739 5.59637C29.5817 5.65003 29.2398 6.67307 29.0554 7.14772C28.6621 8.16008 28.2595 8.84718 27.7434 9.38656C27.5852 9.55196 27.373 9.74209 27.2718 9.80912C26.6436 10.2251 25.9305 10.2328 25.248 9.83083C25.024 9.69889 24.5787 9.28434 24.3255 8.97201C23.5257 7.98556 22.7787 6.11488 22.3323 3.98073C22.2003 3.34958 22.1325 2.91069 22.1634 2.88965Z" fill="#D6D9B4"/>
<path d="M26.0197 38.3078C26.0259 38.1886 26.037 38.2764 26.0483 38.4262C26.0841 38.9019 26.1127 38.9676 26.2278 38.8394C26.2554 38.8086 26.3014 38.7834 26.33 38.7834C26.3587 38.7834 26.3892 38.7648 26.3978 38.7422C26.4065 38.7196 26.4529 38.6924 26.5009 38.6818C26.5491 38.6712 26.6175 38.6489 26.653 38.6321C26.7059 38.6071 26.7158 38.6091 26.7085 38.6435C26.6969 38.6971 26.7251 38.6936 27.0462 38.602C27.617 38.4391 28.2469 38.4811 28.9159 38.7267C29.0285 38.768 29.0883 38.7777 29.108 38.7578C29.1278 38.7378 29.1269 38.6481 29.1054 38.4694C29.0882 38.3267 29.0605 38.0526 29.0439 37.8602C29.0117 37.4864 28.994 37.4446 28.8426 37.3861C28.8172 37.3763 28.7917 37.3665 28.7663 37.3566C28.8086 37.3624 28.851 37.3683 28.8933 37.3741C28.9632 37.3838 29.0251 37.4058 29.0308 37.4231C29.0366 37.4404 29.0546 37.6056 29.0708 37.7903C29.087 37.9749 29.1126 38.233 29.1277 38.3638C29.1701 38.7307 29.2533 39.601 29.3766 40.9656C29.3897 41.1336 29.4026 41.3016 29.4156 41.4697C29.4604 42.0481 29.4466 42.1406 29.3156 42.1406C29.2063 42.1406 29.0192 42.222 28.9864 42.2838C28.9613 42.3313 28.9695 42.3364 29.1824 42.3364C29.8991 42.2945 30.2423 42.2851 30.4073 42.2884C30.5724 42.2917 30.7077 42.285 30.7079 42.2735C30.708 42.2665 30.7081 42.2595 30.7083 42.2525C30.7315 42.2525 30.7549 42.2525 30.7782 42.2525C30.9669 42.2525 31.4688 42.4284 31.7863 42.6057C32.0279 42.7408 32.367 43.0846 32.4654 43.2943C32.6258 43.6363 32.6647 44.0802 32.5619 44.3961C32.5134 44.5452 32.4745 44.6068 32.2342 44.8263C32.2102 44.8411 32.1863 44.8558 32.1624 44.8705C32.0508 44.9393 31.6134 45.0414 31.277 45.0772C30.3649 45.1743 28.7506 45.1252 28.0172 44.978C27.0843 44.7908 26.7304 44.6058 26.5333 44.2024C26.4169 43.9639 26.4006 43.8477 26.3386 42.812C26.3151 42.4196 26.2837 41.9602 26.2687 41.7909C26.2538 41.6216 26.2159 41.1055 26.1846 40.6439C26.1533 40.1822 26.1103 39.6031 26.0891 39.3569C26.0678 39.1108 26.0435 38.774 26.0197 38.3078ZM31.632 43.0638C31.5912 42.9513 31.4045 42.812 31.2944 42.812C31.208 42.812 31.0728 42.9446 31.0536 43.0482C31.0215 43.2203 31.185 43.3995 31.3741 43.3995C31.5449 43.3995 31.6867 43.2149 31.632 43.0638Z" fill="#2B4422"/>
<path d="M28.7663 37.3566C28.7917 37.3665 28.8172 37.3763 28.8426 37.3861C28.994 37.4446 29.0117 37.4865 29.0439 37.8602C29.0605 38.0526 29.0882 38.3267 29.1054 38.4694C29.1269 38.6481 29.1278 38.7378 29.108 38.7578C29.0883 38.7777 29.0285 38.7681 28.9159 38.7267C28.2469 38.4811 27.6171 38.4392 27.0462 38.602C26.7251 38.6936 26.6969 38.6971 26.7085 38.6436C26.7158 38.6091 26.7059 38.6071 26.653 38.6321C26.6175 38.6489 26.5491 38.6713 26.5009 38.6818C26.4529 38.6924 26.4065 38.7196 26.3978 38.7423C26.3892 38.7649 26.3587 38.7834 26.3301 38.7834C26.3014 38.7834 26.2554 38.8086 26.2278 38.8394C26.1127 38.9676 26.0841 38.9019 26.0483 38.4262C26.037 38.2765 26.0259 38.1886 26.0197 38.3078C26.0128 38.3078 26.0058 38.3079 25.9989 38.308C25.9875 38.308 25.9747 38.2357 25.9706 38.1471C25.9512 37.7357 25.9042 37.1015 25.8808 36.9372C25.8432 36.6732 25.8511 36.6694 26.2547 36.7556C26.4362 36.7943 26.6854 36.8502 26.8085 36.8798C26.9316 36.9093 27.0823 36.9415 27.1433 36.9512C27.2043 36.9609 27.4291 37.0113 27.6427 37.0631C27.8563 37.1149 28.1871 37.1907 28.3779 37.2316C28.5686 37.2725 28.734 37.3174 28.7663 37.3566Z" fill="#1B3319"/>
<path d="M20.3976 37.4266C20.4342 37.6969 20.4321 37.7933 20.3889 37.8407C20.3775 37.853 20.2697 37.8367 20.1492 37.8044C19.3783 37.5977 17.9635 37.6332 17.4692 37.8717C17.3886 37.9107 17.3125 37.9315 17.2995 37.9183C17.2466 37.8651 17.1151 36.6563 17.1517 36.5601C17.167 36.52 17.1944 36.5146 17.3155 36.5277C17.555 36.5536 17.869 36.5473 17.9067 36.5158C17.9262 36.4995 18.0835 36.4806 18.2564 36.4736C18.4293 36.4667 18.8142 36.4506 19.1117 36.438C19.4092 36.4253 19.8025 36.4159 19.9856 36.4172C20.0966 36.4179 20.2075 36.4187 20.3185 36.4194C20.3254 36.5407 20.3322 36.6619 20.3391 36.7831C20.3504 36.9831 20.3767 37.2727 20.3976 37.4266Z" fill="#1B3319"/>
<path d="M14.6173 43.6513C14.7845 43.1653 14.8988 42.9561 15.1079 42.7537C15.4093 42.4618 15.7107 42.2999 16.2542 42.1374C16.4498 42.079 17.095 42.0007 17.3816 42.0007C17.5194 42.0007 17.5637 41.9906 17.5768 41.956C17.5944 41.91 17.5051 41.0194 17.4067 40.258C17.3991 40.1997 17.3857 40.0675 17.3767 39.9643C17.3679 39.861 17.3496 39.6948 17.3361 39.5948C17.3226 39.4947 17.2985 39.2933 17.2825 39.1471C17.2664 39.001 17.2289 38.6673 17.199 38.4058C17.1691 38.1442 17.1183 37.6721 17.0861 37.3566C17.0539 37.0412 17.0158 36.6981 17.0014 36.5943C16.9928 36.5313 16.9841 36.4684 16.9755 36.4054C17.0425 36.4007 17.1096 36.3959 17.1766 36.3912C17.5135 36.3672 19.3413 36.297 20.4434 36.2656C20.4887 36.7751 20.5132 37.0993 20.527 37.3147C20.5633 37.8809 20.6456 38.9422 20.7061 39.6213C20.7492 40.1068 20.7865 40.5484 20.8337 41.1335C20.8492 41.3258 20.8736 41.6091 20.888 41.7629C20.9024 41.9168 20.9271 42.1938 20.943 42.3784C20.9995 43.0356 21.0292 43.3589 21.0414 43.4485C21.0454 43.4788 21.0496 43.5091 21.0537 43.5394C21.0489 43.6131 21.0442 43.6866 21.0394 43.7602C21.0316 43.8816 21.0129 44.0201 20.9705 44.1549C20.9548 43.5153 20.9356 43.1785 20.9178 42.9939C20.8149 41.9279 20.7731 41.469 20.7224 40.8537C20.6913 40.4767 20.6535 40.0424 20.6382 39.8885C20.623 39.7346 20.5978 39.4388 20.5825 39.2311C20.5093 38.2455 20.4657 37.7187 20.4153 37.2168C20.3852 36.9167 20.3573 36.6087 20.3534 36.5323C20.3467 36.4021 20.3411 36.3925 20.263 36.3785C20.2172 36.3702 19.9363 36.371 19.6388 36.3802C18.5918 36.4123 17.2657 36.4655 17.1748 36.479C17.1441 36.4835 17.1136 36.488 17.0829 36.4926C17.0891 36.569 17.0953 36.6454 17.1014 36.7218C17.1117 36.8479 17.1375 37.1021 17.1589 37.2867C17.3738 39.142 17.4429 39.7519 17.573 40.9417C17.6144 41.3207 17.6559 41.6997 17.6973 42.0787C17.6255 42.0836 17.5538 42.0885 17.4821 42.0935C16.4607 42.1635 16.3546 42.1806 15.9565 42.3401C15.4124 42.5581 15.0476 42.871 14.8363 43.3013C14.7422 43.4928 14.7211 43.5669 14.7085 43.7528C14.6893 44.0361 14.7308 44.2298 14.8518 44.4205C14.9366 44.5541 15.0745 44.7104 15.147 44.755C15.1554 44.7601 15.1638 44.7653 15.1722 44.7704C15.1537 44.7797 15.1352 44.789 15.1167 44.7984C15.0707 44.7605 15.0246 44.7227 14.9787 44.6849C14.8781 44.6021 14.8126 44.514 14.7374 44.3606C14.6453 44.1728 14.6332 44.1229 14.6173 43.6513Z" fill="#030606"/>
<path d="M29.1269 37.3846C29.1269 37.5511 29.1386 37.6991 29.1529 37.8208C29.1672 37.9425 29.1931 38.1931 29.2103 38.3778C29.2276 38.5624 29.2528 38.8205 29.2663 38.9513C29.2798 39.082 29.3042 39.3212 29.3205 39.4828C29.3368 39.6444 29.3619 39.8899 29.3761 40.0284C29.4088 40.3459 29.4478 40.7442 29.502 41.3153C29.5254 41.5615 29.5504 41.8227 29.5577 41.8958C29.562 41.9401 29.5664 41.9844 29.5708 42.0287C29.5276 42.1739 29.4943 42.0312 29.4483 41.5041C29.4224 41.2079 29.3957 40.9656 29.3889 40.9656C29.3848 40.9656 29.3807 40.9656 29.3766 40.9656C29.2533 39.601 29.17 38.7307 29.1277 38.3638C29.1126 38.233 29.087 37.9749 29.0708 37.7903C29.0546 37.6056 29.0365 37.4404 29.0308 37.4231C29.0251 37.4058 28.9632 37.3838 28.8933 37.3741C28.851 37.3683 28.8086 37.3624 28.7663 37.3566C28.734 37.3174 28.5686 37.2725 28.3779 37.2316C28.1871 37.1907 27.8563 37.1149 27.6427 37.0631C27.4291 37.0113 27.2043 36.9609 27.1433 36.9512C27.0823 36.9415 26.9316 36.9093 26.8085 36.8797C26.6854 36.8502 26.4362 36.7943 26.2547 36.7556C25.8511 36.6694 25.8432 36.6732 25.8808 36.9372C25.9042 37.1015 25.9512 37.7357 25.9706 38.1471C25.9747 38.2357 25.9875 38.308 25.9989 38.3079C26.0058 38.3079 26.0128 38.3078 26.0197 38.3078C26.0435 38.774 26.0678 39.1108 26.0891 39.3569C26.1103 39.6031 26.1533 40.1823 26.1846 40.6439C26.2159 41.1055 26.2537 41.6216 26.2687 41.7909C26.2837 41.9602 26.3151 42.4196 26.3386 42.812C26.4006 43.8477 26.4169 43.9639 26.5333 44.2024C26.7304 44.6058 27.0843 44.7908 28.0172 44.978C28.7506 45.1252 30.3649 45.1743 31.277 45.0772C31.6134 45.0414 32.0508 44.9393 32.1624 44.8705C32.1863 44.8558 32.2102 44.8411 32.2342 44.8263C32.2526 44.8357 32.2712 44.845 32.2896 44.8543C32.2711 44.8689 32.2525 44.8834 32.2339 44.898C32.1567 44.9587 31.8116 45.0737 31.6107 45.1058C30.917 45.2166 29.932 45.2441 29.0564 45.1772C27.6262 45.0679 26.8725 44.8351 26.5605 44.4064C26.4098 44.1994 26.3547 44.0241 26.2971 43.5674C26.2971 43.212 26.2852 42.9696 26.2705 42.7996C26.2559 42.6295 26.2303 42.3077 26.2137 42.0846C26.1972 41.8616 26.1721 41.5342 26.1581 41.3573C26.123 40.9151 26.0826 40.3849 26.0471 39.9025C26.0306 39.6794 26.0125 39.4339 26.0068 39.3569C26.001 39.28 25.9763 38.9275 25.9519 38.5736C25.9274 38.2197 25.889 37.7035 25.8664 37.4266C25.8439 37.1496 25.8255 36.8569 25.8255 36.7761C25.8255 36.7272 25.8255 36.6782 25.8255 36.6292C25.9712 36.6578 26.1168 36.6864 26.2625 36.715C27.4981 36.9572 29.0385 37.3174 29.1269 37.3846Z" fill="#030606"/>
<path d="M32.5116 43.2317C32.5545 43.3293 32.5921 43.43 32.6226 43.5184C32.641 43.572 32.6596 43.6257 32.6781 43.6793C32.6839 43.7349 32.6898 43.7904 32.6958 43.846C32.736 44.2249 32.5947 44.5759 32.2897 44.8543C32.2712 44.845 32.2526 44.8357 32.2342 44.8263C32.4745 44.6068 32.5134 44.5452 32.5619 44.396C32.6647 44.0802 32.6258 43.6363 32.4654 43.2943C32.367 43.0846 32.0279 42.7407 31.7863 42.6057C31.4688 42.4284 30.9669 42.2525 30.7782 42.2525C30.7549 42.2525 30.7315 42.2525 30.7083 42.2525C30.1322 42.174 30.1208 42.1734 29.7234 42.2015C29.3094 42.2307 29.1656 42.2575 29.1755 42.3038C29.1778 42.3147 29.1801 42.3256 29.1824 42.3364C28.9695 42.3364 28.9613 42.3313 28.9865 42.2838C29.0192 42.222 29.2063 42.1406 29.3156 42.1406C29.4466 42.1406 29.4604 42.048 29.4156 41.4697C29.4026 41.3016 29.3897 41.1336 29.3766 40.9656C29.3807 40.9656 29.3848 40.9656 29.3889 40.9656C29.3957 40.9656 29.4224 41.2079 29.4483 41.5041C29.4943 42.0312 29.5276 42.1739 29.5708 42.0287C29.5893 42.038 29.6078 42.0473 29.6263 42.0567C29.6263 42.0631 29.6263 42.0695 29.6263 42.0759C29.6263 42.0864 29.8261 42.099 30.5141 42.1126C30.5234 42.1126 30.5326 42.1126 30.5418 42.1126C30.5811 42.1231 30.6205 42.1335 30.6597 42.144C30.7246 42.1612 30.9181 42.2116 31.4019 42.3364C31.4111 42.3364 31.4203 42.3364 31.4296 42.3364C31.5013 42.3749 31.5729 42.4134 31.6446 42.4519C31.9461 42.6138 32.035 42.6864 32.4284 43.0918C32.4284 43.1011 32.4284 43.1104 32.4284 43.1198C32.4376 43.1291 32.4468 43.1384 32.4561 43.1477C32.4561 43.1571 32.4561 43.1664 32.4561 43.1757C32.4746 43.1943 32.4931 43.213 32.5116 43.2317Z" fill="#0D130D"/>
<path d="M16.3096 42.6722C16.3096 42.6661 16.3096 42.6601 16.3096 42.6541C16.3096 42.6441 16.3697 42.6301 16.4432 42.623C16.5639 42.6113 16.585 42.6184 16.6629 42.697C16.8285 42.8639 16.8014 43.0548 16.5871 43.2317C16.5846 43.2218 16.5821 43.212 16.5796 43.2021C16.5745 43.1817 16.5346 43.1811 16.4513 43.1999C16.3276 43.2279 16.2559 43.2168 16.2199 43.1638C16.1794 43.1042 16.2007 42.9635 16.2683 42.8443C16.3062 42.7774 16.3311 42.7112 16.3096 42.6722Z" fill="#5C734E"/>
<path d="M15.1722 44.7704C15.6974 45.038 16.5607 45.17 17.7939 45.1713C18.9331 45.1726 19.9453 45.0051 20.3903 44.7416C20.5887 44.6241 20.7146 44.4982 20.8511 44.2808C20.8993 44.2039 20.9397 44.1504 20.9408 44.1619C20.9414 44.1689 20.9421 44.1759 20.9427 44.1829C20.9206 44.2318 20.8986 44.2808 20.8765 44.3298C20.7909 44.5194 20.5658 44.7424 20.3501 44.851C19.6126 45.2226 17.7215 45.3589 16.2457 45.1468C15.7654 45.0778 15.4403 44.9774 15.1167 44.7984C15.1352 44.789 15.1537 44.7797 15.1722 44.7704Z" fill="#0D130D"/>
<path d="M31.632 43.0638C31.6867 43.2149 31.5449 43.3995 31.3741 43.3995C31.185 43.3995 31.0215 43.2203 31.0536 43.0482C31.0728 42.9446 31.208 42.812 31.2944 42.812C31.4045 42.812 31.5912 42.9513 31.632 43.0638Z" fill="#5C734E"/>
<path d="M29.1824 42.3364C29.1801 42.3256 29.1778 42.3147 29.1755 42.3038C29.1656 42.2576 29.3094 42.2307 29.7234 42.2015C30.1208 42.1735 30.1322 42.1741 30.7083 42.2525C30.7081 42.2595 30.708 42.2665 30.7079 42.2735C30.7077 42.285 30.5724 42.2917 30.4073 42.2884C30.2423 42.2851 29.8991 42.2945 29.1824 42.3364Z" fill="#1B3319"/>
<path d="M16.3096 42.6721C16.3311 42.7112 16.3062 42.7773 16.2683 42.8443C16.2007 42.9634 16.1794 43.1042 16.2199 43.1638C16.2559 43.2168 16.3276 43.2279 16.4513 43.1999C16.5346 43.181 16.5745 43.1817 16.5796 43.2021C16.5821 43.212 16.5846 43.2218 16.5871 43.2317C16.4476 43.275 16.3665 43.2799 16.3166 43.2705C16.196 43.2476 16.0877 43.1158 16.0877 42.9918C16.0877 42.9598 16.0877 42.9279 16.0877 42.896C16.1723 42.7671 16.2222 42.7167 16.2533 42.7009C16.272 42.6913 16.2909 42.6818 16.3096 42.6721Z" fill="#8C9F6B"/>
<path d="M11.843 22.7529C11.8433 21.8286 11.8531 21.6363 11.871 21.6463C11.8801 21.6515 11.8893 21.6567 11.8985 21.6618C11.88 22.0255 11.8615 22.3892 11.843 22.7529Z" fill="#0D130D"/>
<path d="M11.9538 20.1511C12 20.0865 12.0288 19.6339 12.0936 17.955C12.1318 16.9681 12.1723 16.0305 12.2031 15.4258C12.2333 14.8317 12.3288 12.6017 12.3703 11.5204C12.3845 11.1511 12.4085 10.5972 12.4237 10.2894C12.4388 9.9817 12.4581 9.54107 12.4665 9.31026C12.4748 9.07946 12.4884 8.77748 12.4967 8.63916C12.5113 8.39359 12.5393 7.74162 12.5921 6.4147C12.6065 6.05308 12.6311 5.4362 12.6468 5.04385C12.6626 4.65151 12.6874 3.915 12.702 3.40723C12.754 1.59565 12.7656 1.47042 12.9323 0.931317C13.065 0.50227 13.4164 0.145571 13.7987 0.0516257C14.138 -0.0316881 14.7865 -0.0123283 15.2969 0.0964441C15.8079 0.205328 16.638 0.454655 17.2944 0.696315C17.4036 0.736545 17.6361 0.82081 18.2376 1.03836C18.5871 1.16475 19.2737 1.4528 19.6803 1.6436C19.8329 1.71522 20.019 1.80138 20.0939 1.83518C20.2835 1.92062 21.8628 2.71884 22.0279 2.81273C22.073 2.83836 22.1182 2.86404 22.1633 2.88967C22.1323 2.91071 22.2002 3.3496 22.3322 3.98075C22.7785 6.1149 23.5255 7.98558 24.3253 8.97203C24.5785 9.28436 25.0238 9.69891 25.2479 9.83085C25.9304 10.2328 26.6434 10.2251 27.2717 9.80914C27.3728 9.74211 27.585 9.55198 27.7433 9.38658C28.2593 8.8472 28.6619 8.16009 29.0553 7.14774C29.2396 6.67309 29.5815 5.65005 29.5737 5.59639C29.5727 5.5894 29.5717 5.5824 29.5707 5.57541C30.4358 5.51895 30.7748 5.4875 31.1243 5.43116C31.2235 5.41516 31.3421 5.3977 31.3878 5.39233C31.4336 5.38701 31.5772 5.37023 31.7069 5.35506C31.9689 5.32446 32.7075 5.20556 33.4686 5.0715C33.7432 5.02315 34.0491 4.97095 34.1483 4.95562C34.2475 4.94029 34.391 4.91751 34.4673 4.90504C35.0812 4.80471 36.2326 4.64217 36.5619 4.60944C37.5024 4.51577 37.6976 4.50592 38.3472 4.5193C38.971 4.53217 39.0344 4.53826 39.2669 4.60793C39.8392 4.77948 40.1594 5.01537 40.3335 5.39356C40.429 5.60103 40.5302 5.94257 40.5598 6.15676C40.6064 6.49499 40.5256 7.45453 40.3624 8.49895C40.348 8.59127 40.3102 8.84306 40.2785 9.05847C40.2467 9.27389 40.1965 9.58863 40.1669 9.75789C40.1372 9.92714 40.1008 10.1349 40.086 10.2195C40.0711 10.3041 40.0333 10.5434 40.0019 10.751C39.9705 10.9587 39.9258 11.242 39.9025 11.3805C39.8792 11.519 39.8538 11.6764 39.846 11.7302C39.8382 11.7841 39.8074 11.9855 39.7775 12.1778C39.7475 12.3702 39.7103 12.6094 39.6949 12.7094C39.6794 12.8094 39.6601 12.929 39.6519 12.9752C39.6438 13.0213 39.6262 13.1346 39.6128 13.227C39.5993 13.3193 39.5762 13.4704 39.5615 13.5627C39.5466 13.655 39.5271 13.7809 39.5181 13.8424C39.4921 14.0201 39.4473 14.3047 39.4191 14.4719C39.4048 14.5565 39.3797 14.7202 39.3632 14.8356C39.3365 15.0235 39.2146 15.806 39.1433 16.2484C39.1284 16.3407 39.0903 16.5925 39.0586 16.8079C39.027 17.0234 38.9896 17.2689 38.9755 17.3535C38.9615 17.4381 38.9365 17.5955 38.9201 17.7032C38.9037 17.8109 38.8787 17.9683 38.8646 18.0529C38.8505 18.1375 38.8255 18.2949 38.809 18.4026C38.7925 18.5103 38.7725 18.6362 38.7647 18.6824C38.7404 18.8254 38.642 19.4562 38.6141 19.6476C38.5996 19.7476 38.5757 19.9049 38.561 19.9973C38.5464 20.0896 38.5087 20.3351 38.4773 20.5428C38.4458 20.7505 38.4012 21.0401 38.378 21.1863C38.3079 21.629 38.2859 21.7712 38.2241 22.1794C38.1916 22.3948 38.1466 22.6781 38.1242 22.8089C38.1017 22.9397 38.0721 23.1348 38.0583 23.2425C38.0446 23.3502 38.0204 23.5202 38.0048 23.6202C37.9605 23.9027 37.8046 25.0585 37.8076 25.082C37.8085 25.089 37.8095 25.096 37.8104 25.103C37.6596 26.1328 37.598 26.564 37.5762 26.7256C37.5544 26.8872 37.4858 27.3938 37.4238 27.8517C37.3862 28.1291 37.3486 28.4065 37.311 28.684C37.2587 28.818 37.2366 28.9282 37.1736 29.3694C37.1061 29.842 37.0551 30.1852 37.0073 30.4884C36.9782 30.6731 36.9402 30.9249 36.9229 31.048C36.8859 31.3122 36.8528 31.5369 36.8129 31.7963C36.769 32.0817 36.7331 32.3222 36.7158 32.4468C36.7072 32.5083 36.6743 32.7349 36.6427 32.9504C36.611 33.1658 36.5734 33.4238 36.5588 33.5239C36.5095 33.8638 36.483 34.0409 36.4246 34.4191C36.3925 34.6268 36.3594 34.8472 36.3509 34.9087C36.1852 36.1158 36.0832 36.768 36.0318 36.951C35.8971 37.4297 35.8561 37.5309 35.6917 37.7903C35.504 38.0862 35.2417 38.3138 34.9719 38.4152C34.8251 38.4703 34.0664 38.4943 33.8444 38.4509C32.7585 38.2384 32.0809 38.084 31.1798 37.8438C30.4482 37.6487 30.0495 37.5447 29.9868 37.5325C29.9486 37.525 29.8363 37.4964 29.7371 37.4689C29.4551 37.3907 29.2168 37.348 29.1698 37.3671C29.1554 37.373 29.1412 37.3787 29.1268 37.3846C29.0384 37.3174 27.4979 36.9573 26.2623 36.715C26.1167 36.6864 25.971 36.6578 25.8254 36.6293C25.6135 36.512 24.0248 36.3194 22.8846 36.2726C22.6023 36.261 21.9376 36.2548 21.4073 36.2586C21.0859 36.2609 20.7646 36.2632 20.4432 36.2656C19.3412 36.297 17.5134 36.3672 17.1765 36.3912C17.1094 36.3959 17.0423 36.4007 16.9753 36.4054C16.9215 36.3685 16.7062 36.3676 16.4621 36.3795C15.9328 36.4054 14.969 36.4575 14.6588 36.4768C14.5367 36.4845 14.017 36.4984 13.504 36.5079C12.6692 36.5233 12.5496 36.5199 12.3665 36.4756C12.2539 36.4483 12.1369 36.4084 12.1064 36.3868C11.9613 36.2844 11.8134 36.1275 11.7495 36.0082C11.6094 35.7466 11.5902 35.5277 11.5913 34.1953C11.5918 33.526 11.5991 32.8021 11.6076 32.5867C11.623 32.1968 11.6646 30.5956 11.6911 29.3694C11.6988 29.0155 11.7172 28.3294 11.7322 27.8447C11.8025 25.5548 11.8269 24.5175 11.8213 24.0608C11.8192 23.8953 11.8172 23.7298 11.8151 23.5643C11.8244 23.3591 11.8336 23.1539 11.8428 22.9488C11.8428 22.8835 11.8428 22.8182 11.8428 22.7529C11.8613 22.3892 11.8799 22.0256 11.8983 21.6619C11.8983 21.5872 11.8983 21.5127 11.8983 21.4381C11.9168 21.0091 11.9353 20.5801 11.9538 20.1511ZM22.08 13.9404C22.0985 13.9124 22.1171 13.8844 22.1355 13.8564C22.2211 13.6005 22.1887 13.4845 21.9737 13.2769C21.7842 13.0939 21.3134 12.8495 20.9917 12.7673C20.4086 12.6182 19.6205 12.6821 19.0422 12.9254C18.6871 13.0747 18.2977 13.3499 18.2003 13.5204C18.1896 13.5392 18.179 13.5579 18.1683 13.5767C18.1683 13.9054 18.2961 14.0767 18.5606 14.1023C18.7174 14.1175 18.8059 14.0857 19.056 13.9246C19.418 13.6915 19.763 13.5951 20.2213 13.5992C20.5786 13.6024 20.8784 13.6749 21.1347 13.8202C21.5827 14.0742 21.6116 14.0855 21.7821 14.0737C21.8959 14.0658 21.962 14.045 22.011 14.0015C22.034 13.9811 22.0571 13.9607 22.08 13.9404ZM20.7206 20.319C20.7946 20.2538 20.8686 20.1884 20.9426 20.1232C21.1197 19.9693 21.2819 19.7347 21.3891 19.4774C21.416 19.4129 21.4428 19.3484 21.4697 19.2839C21.5574 19.0345 21.6011 18.8835 21.6234 18.7873C21.6369 18.729 21.6504 18.6707 21.6639 18.6124C21.677 17.4724 21.6722 17.4032 21.6131 17.1773C21.4471 16.543 21.2014 16.1626 20.8049 15.9256C20.2589 15.5994 19.5703 15.687 19.0796 16.145C18.992 16.2268 18.8515 16.4055 18.7664 16.5436C18.715 16.6271 18.6636 16.7105 18.6122 16.794C18.4661 17.1183 18.3622 17.4429 18.3101 17.7382C18.2998 17.7964 18.2896 17.8548 18.2792 17.913C18.2795 18.6325 18.3123 18.9937 18.4064 19.3116C18.4761 19.5473 18.6493 19.8733 18.7902 20.0341C18.8325 20.0824 18.8749 20.1308 18.9173 20.1791C19.3091 20.4759 19.5892 20.5988 19.8745 20.5988C20.038 20.5988 20.3786 20.4983 20.5889 20.3881C20.6328 20.3651 20.6767 20.342 20.7206 20.319ZM25.6866 24.2637C26.115 23.8599 26.2365 23.7177 26.293 23.6132C26.3221 23.5596 26.3511 23.506 26.3802 23.4524C26.4565 23.242 26.4386 23.0543 26.3314 22.9405C26.2136 22.8154 26.0693 22.7529 25.8979 22.7529C25.7112 22.7529 25.6218 22.8199 25.4513 23.0874C25.2487 23.405 25.0519 23.5772 24.6737 23.7679C24.1336 24.0401 23.6168 24.1218 23.0372 24.0267C22.1705 23.8844 21.506 23.404 21.1741 22.6795C21.0402 22.3872 20.9826 22.3147 20.8409 22.2601C20.6238 22.1765 20.3581 22.259 20.2544 22.4424C20.2434 22.462 20.2323 22.4816 20.2213 22.5012C20.2228 22.8645 20.2704 23.0118 20.5024 23.3699C20.999 24.1363 21.8306 24.6731 22.827 24.8703C23.1946 24.9431 23.8914 24.9355 24.2995 24.8544C24.7757 24.7596 25.2548 24.5635 25.6067 24.3191C25.6333 24.3007 25.66 24.2822 25.6866 24.2637ZM28.35 21.1303C28.5435 21.0008 28.5997 20.9568 28.5997 20.9489C28.5997 20.944 28.5997 20.9393 28.5997 20.9345C28.8411 20.7122 28.998 20.5194 29.0953 20.3253C29.115 20.2859 29.1348 20.2465 29.1545 20.2071C29.2569 20.0369 29.421 19.5689 29.4442 19.3811C29.4494 19.3393 29.4545 19.2976 29.4597 19.2559C29.5316 18.5981 29.5097 18.2396 29.3708 17.8011C29.1796 17.1973 28.807 16.7633 28.3361 16.5957C28.0972 16.5107 27.6829 16.4917 27.4554 16.5553C26.9317 16.7017 26.457 17.132 26.1841 17.7075C26.0686 17.9513 25.9542 18.3591 25.9088 18.6894C25.8995 18.757 25.8902 18.8245 25.8808 18.8922C25.8828 19.6082 25.9611 20.016 26.178 20.4393C26.6056 21.2743 27.4497 21.5879 28.2182 21.1973C28.2621 21.175 28.306 21.1526 28.35 21.1303ZM29.2378 15.0035C29.4282 15.2603 29.6419 15.3218 29.87 15.1853C29.9089 15.162 29.9479 15.1387 29.9868 15.1154C29.9961 15.1154 30.0053 15.1154 30.0146 15.1154C30.0238 15.1061 30.033 15.0967 30.0423 15.0874C30.1335 14.8503 30.1334 14.8364 30.0868 14.7132C29.9545 14.3639 29.3175 13.8865 28.7384 13.7025C28.2353 13.5427 27.7379 13.509 27.2541 13.6021C26.7871 13.6918 26.5517 13.8098 26.4356 14.0118C26.4171 14.0439 26.3986 14.0761 26.3802 14.1082C26.3807 14.5481 26.6491 14.7076 27.1293 14.5534C27.5327 14.4239 28.2126 14.458 28.6291 14.6286C28.7867 14.6932 29.1077 14.8852 29.2031 14.972C29.2146 14.9825 29.2262 14.9929 29.2378 15.0035ZM18.1937 32.1251C18.1032 30.3296 17.4873 28.4779 16.5819 27.2784C15.9395 26.4275 15.0094 25.7075 14.2448 25.4694C14.0254 25.401 13.7602 25.3932 13.6479 25.4518C13.6216 25.4655 13.5954 25.4791 13.5691 25.4928C13.5637 25.6913 13.5582 25.8898 13.5528 26.0882C13.5437 26.4157 13.5297 27.4264 13.5216 28.3342C13.5136 29.2421 13.4929 30.6713 13.4758 31.5102C13.442 33.1652 13.4471 33.2569 13.5816 33.4349C13.6223 33.4886 13.7222 33.5629 13.8097 33.6042C13.8615 33.6287 13.9134 33.6532 13.9652 33.6777C14.2796 33.6766 14.594 33.6754 14.9085 33.6742C15.7409 33.6711 17.3692 33.6085 17.7715 33.5641C17.8511 33.5553 17.9463 33.5239 17.9841 33.494C18.175 33.3425 18.2353 32.9493 18.1937 32.1251ZM19.7274 4.80404C19.6813 4.70825 19.5987 4.5945 19.5381 4.5433C19.1964 4.25486 17.8676 3.77523 16.5176 3.45295C15.9558 3.31888 15.6872 3.27681 15.2896 3.2608C14.9848 3.24861 14.9004 3.25426 14.7979 3.29365C14.6723 3.34205 14.5484 3.46313 14.504 3.58097C14.4494 3.72566 14.3855 4.54638 14.2147 7.29596C14.1765 7.91144 14.1196 8.80792 14.0884 9.28805C14.0571 9.76824 14.0399 10.2089 14.05 10.2672C14.0965 10.5346 14.3104 10.7514 14.5845 10.809C14.7962 10.8534 15.2523 10.8278 15.6159 10.751C16.5643 10.5507 17.311 10.1307 18.0355 9.38999C18.7966 8.61186 19.2732 7.76736 19.5705 6.66957C19.7058 6.1703 19.7779 5.73733 19.7948 5.32362C19.8089 4.9799 19.8078 4.971 19.7274 4.80404ZM35.5555 27.1074C35.3552 26.9349 35.2413 26.9101 34.7362 26.9298C33.5641 26.9754 32.4386 27.4872 31.1936 28.5405C29.5308 29.9475 28.4317 32.0457 28.4222 33.8316C28.4204 34.177 28.4292 34.2669 28.4819 34.4367C28.5159 34.5464 28.5657 34.6625 28.5925 34.6946C28.6392 34.7506 29.5485 34.9884 32.0953 35.6108C32.9446 35.8183 33.5749 35.9801 33.6577 36.0118C33.7586 36.0505 33.9706 36.0467 34.0875 36.004C34.2009 35.9625 34.3592 35.8096 34.4268 35.6759C34.4946 35.5419 34.5387 35.3063 34.7042 34.1953C34.7809 33.6799 34.8685 33.0944 34.8987 32.8944C34.9288 32.6944 34.9656 32.4489 34.9804 32.3489C34.9952 32.2488 35.0515 31.8711 35.1056 31.5096C35.4157 29.4341 35.7019 27.4172 35.7019 27.3075C35.7019 27.2528 35.6637 27.2006 35.5555 27.1074ZM38.3305 7.57186C38.2708 7.48178 38.1983 7.41503 38.1155 7.37424C37.6601 7.14936 35.5085 7.18316 34.0096 7.43869C32.987 7.61304 32.1991 7.88878 31.9071 8.17459C31.625 8.4506 31.5618 8.90852 31.7104 9.60015C32.0229 11.0545 33.1208 12.581 34.5041 13.4845C34.6364 13.571 34.7799 13.6658 34.8228 13.6953C34.9573 13.7876 35.7328 14.1755 35.9736 14.2709C36.1002 14.3211 36.381 14.4078 36.5978 14.4637C36.9612 14.5573 37.0104 14.5636 37.2291 14.5445C37.3082 14.5376 37.3873 14.5307 37.4664 14.5238C37.4864 14.3869 37.5065 14.25 37.5266 14.1132C37.5597 13.8874 37.6561 13.2556 37.7407 12.7094C37.901 11.6751 38.3046 8.97561 38.3783 8.44512C38.4016 8.27704 38.4207 8.04237 38.4207 7.92375C38.4207 7.72685 38.4128 7.69602 38.3305 7.57186ZM37.3659 14.6115C37.335 14.5948 37.2324 14.5849 37.1378 14.5895C37.0804 14.5923 37.0231 14.595 36.9658 14.5978C36.9591 14.6351 36.9524 14.6725 36.9457 14.7097C36.916 14.8757 36.7393 16.1148 36.6585 16.724C36.6197 17.0164 36.5575 17.4759 36.5203 17.7452C36.4336 18.3731 36.3486 19.0133 36.3142 19.2979C36.2787 19.5912 36.1048 20.9465 36.0342 21.48C35.9444 22.1586 35.7057 24.0552 35.6187 24.7812C35.5082 25.7043 35.4611 26.0624 35.3935 26.4955C35.3474 26.7907 35.3426 26.8754 35.3695 26.9082C35.3882 26.9308 35.4153 26.9494 35.4297 26.9494C35.4441 26.9494 35.4968 26.9809 35.5469 27.0194C35.6756 27.1184 35.7216 27.1101 35.7407 26.9844C35.7496 26.9267 35.7812 26.7221 35.8111 26.5298C35.8411 26.3374 35.8787 26.0793 35.8948 25.9562C35.911 25.8332 35.9806 25.2981 36.0496 24.7672C36.1185 24.2364 36.1945 23.6636 36.2183 23.4943C36.2656 23.158 36.3118 22.8165 36.3941 22.1934C36.5519 20.9992 36.6556 20.2229 36.7549 19.4937C36.8156 19.0475 36.9098 18.3488 36.9643 17.941C37.0186 17.5332 37.0823 17.0674 37.1056 16.9059C37.2202 16.1139 37.422 14.6838 37.422 14.664C37.422 14.6517 37.3967 14.6281 37.3659 14.6115Z" fill="#FEFCEE"/>
<path d="M37.3659 14.6115C37.3967 14.6281 37.422 14.6518 37.422 14.664C37.422 14.6838 37.2202 16.1139 37.1056 16.9059C37.0823 17.0674 37.0186 17.5332 36.9643 17.941C36.9098 18.3488 36.8156 19.0475 36.7549 19.4937C36.6556 20.2229 36.5519 20.9992 36.3941 22.1934C36.3118 22.8165 36.2656 23.158 36.2183 23.4943C36.1945 23.6636 36.1185 24.2364 36.0496 24.7673C35.9806 25.2981 35.911 25.8332 35.8948 25.9563C35.8787 26.0793 35.8411 26.3374 35.8111 26.5298C35.7812 26.7221 35.7496 26.9267 35.7407 26.9844C35.7216 27.1101 35.6756 27.1184 35.5469 27.0194C35.4968 26.9809 35.4441 26.9494 35.4297 26.9494C35.4153 26.9494 35.3882 26.9308 35.3695 26.9082C35.3426 26.8754 35.3475 26.7907 35.3935 26.4955C35.4611 26.0625 35.5082 25.7044 35.6187 24.7812C35.7057 24.0552 35.9444 22.1586 36.0342 21.48C36.1048 20.9465 36.2787 19.5912 36.3142 19.2979C36.3486 19.0133 36.4336 18.3731 36.5203 17.7452C36.5575 17.4759 36.6197 17.0164 36.6585 16.724C36.7393 16.1148 36.916 14.8757 36.9457 14.7097C36.9524 14.6725 36.9591 14.6351 36.9658 14.5978C37.0231 14.595 37.0804 14.5923 37.1378 14.5895C37.2324 14.5849 37.335 14.5948 37.3659 14.6115Z" fill="#F2ECD3"/>
<path d="M28.3501 21.1303C28.3501 21.1252 28.3501 21.1201 28.3501 21.1151C28.3501 21.1067 28.2347 21.1398 28.0935 21.1887C27.9523 21.2376 27.7616 21.2838 27.6696 21.2912C27.4628 21.308 27.1456 21.2445 26.9214 21.1415C26.6834 21.032 26.3955 20.7327 26.265 20.4589C26.0582 20.025 26.0543 20.0131 26.0048 19.6621C25.9281 19.1184 25.9624 18.6216 26.1126 18.1042C26.2709 17.5587 26.5881 17.1147 27.0212 16.8322C27.4242 16.5693 27.7777 16.5102 28.2031 16.6344C28.6259 16.7579 28.8772 16.9636 29.1073 17.3744C29.388 17.8758 29.4362 18.1328 29.4598 19.2559C29.4547 19.2976 29.4495 19.3393 29.4444 19.3811C29.4212 19.569 29.257 20.0369 29.1547 20.2071C29.1536 20.2001 29.1525 20.1931 29.1513 20.1861C29.1494 20.1746 29.1558 20.1421 29.1655 20.114C29.2048 20 29.1446 20.0173 29.0652 20.1429C29.0186 20.2167 28.9425 20.3327 28.896 20.4008C28.8234 20.5069 28.8179 20.5268 28.8569 20.5406C28.8936 20.5537 28.8735 20.5927 28.5998 20.9345C28.5998 20.9393 28.5998 20.9441 28.5998 20.9489C28.5998 20.9568 28.5436 21.0008 28.3501 21.1303ZM27.4346 17.8011C27.4069 17.7824 27.3791 17.7639 27.3514 17.7452C27.3563 17.7833 27.3611 17.8215 27.366 17.8596C27.3925 18.068 27.4762 18.1895 27.6474 18.2685C27.8274 18.3516 27.9796 18.3439 28.1826 18.2414C28.3659 18.1486 28.4464 17.9892 28.4469 17.7172C28.4472 17.5385 28.436 17.488 28.3713 17.3772C28.268 17.2 28.062 17.0966 27.9895 17.1856C27.966 17.1856 27.9426 17.1856 27.9192 17.1856C27.8327 17.1856 27.6627 17.2552 27.5922 17.3196C27.4885 17.4142 27.4346 17.5789 27.4346 17.8011Z" fill="#1B3319"/>
<path d="M18.6678 16.8219C18.7025 16.7631 18.7372 16.7042 18.7718 16.6454C19.0845 16.1147 19.4939 15.8352 20.0184 15.7945C20.4181 15.7635 20.911 15.9961 21.1673 16.3366C21.497 16.7747 21.6681 17.5159 21.6267 18.3267C21.6164 18.5263 21.6203 18.6369 21.6641 18.6124C21.6505 18.6707 21.6371 18.729 21.6235 18.7873C21.6013 18.8835 21.5576 19.0345 21.4698 19.2839C21.4606 19.2784 21.4514 19.273 21.4421 19.2676C21.4268 19.2586 21.4144 19.2314 21.4144 19.2073C21.4144 19.1688 21.4077 19.1694 21.3614 19.2116C21.3322 19.2383 21.3007 19.2909 21.2913 19.3286C21.26 19.4543 21.1416 19.6906 21.0832 19.7439C21.0515 19.7728 21.0067 19.8353 20.9835 19.8829C20.9444 19.9631 20.9449 19.969 20.9906 19.9647C21.0376 19.9603 21.0377 19.9638 20.9427 20.1232C20.8688 20.1884 20.7947 20.2538 20.7208 20.319C20.7201 20.312 20.7195 20.305 20.7187 20.298C20.7176 20.2865 20.702 20.2864 20.6841 20.2978C20.6661 20.3092 20.6325 20.3187 20.6094 20.3188C20.5863 20.3189 20.4865 20.3588 20.3876 20.4074C20.141 20.5288 20.0586 20.5427 19.7672 20.5123C19.4462 20.4788 19.2184 20.3752 18.973 20.1511C18.9598 20.1417 18.9466 20.1323 18.9334 20.1229C18.8729 20.0799 18.6766 19.769 18.5697 19.5474C18.3818 19.1576 18.3078 18.3242 18.4039 17.6813C18.4467 17.3948 18.5859 16.9416 18.6678 16.8219ZM19.6943 16.9339C19.6758 16.9246 19.6573 16.9152 19.6388 16.9059C19.6388 16.946 19.6388 16.9862 19.6388 17.0263C19.6388 17.1004 19.667 17.2038 19.7122 17.2953C19.7738 17.4199 19.8084 17.4545 19.9272 17.5103C20.0967 17.5898 20.1649 17.593 20.3416 17.5291C20.6013 17.4352 20.7749 17.1552 20.7342 16.8957C20.693 16.6336 20.5263 16.4193 20.4156 16.4862C20.353 16.4805 20.2904 16.4747 20.2278 16.4689C20.0456 16.4522 20.0365 16.4544 19.9157 16.5469C19.8207 16.6197 19.78 16.6765 19.6943 16.9339Z" fill="#1B3319"/>
<path d="M25.6868 24.2637C25.6966 24.2504 25.7063 24.2372 25.7161 24.2239C25.749 24.1793 25.575 24.2608 25.4962 24.327C25.4713 24.3479 25.3761 24.4041 25.2845 24.4519C24.5795 24.82 23.5664 24.9442 22.7183 24.7667C22.3522 24.69 22.1578 24.624 21.8519 24.4722C21.3436 24.2199 21.0243 23.9573 20.7028 23.5274C20.4173 23.1456 20.3208 22.9356 20.3214 22.6973C20.3217 22.5971 20.3371 22.487 20.3557 22.4525C20.4288 22.317 20.6574 22.2662 20.8424 22.3441C20.9445 22.3871 21.0282 22.4926 21.0782 22.6411C21.1744 22.9271 21.4943 23.3394 21.8044 23.5773C21.9975 23.7254 22.3226 23.9067 22.504 23.9674C23.1021 24.1676 23.7806 24.1778 24.3274 23.9948C24.8636 23.8153 25.2559 23.5333 25.4908 23.1582C25.5959 22.9904 25.7242 22.8664 25.8327 22.8278C25.8596 22.8183 25.947 22.8226 26.0269 22.8376C26.1429 22.8591 26.1938 22.8876 26.2788 22.9782C26.3804 23.0867 26.3851 23.1 26.3804 23.4524C26.3513 23.506 26.3223 23.5596 26.2932 23.6132C26.2366 23.7178 26.1151 23.8599 25.6868 24.2637Z" fill="#1B3319"/>
<path d="M22.0802 13.9404C22.0501 13.9518 22.0201 13.9633 21.99 13.9747C21.8554 14.026 21.639 14.0146 21.5115 13.9495C21.4504 13.9183 21.2837 13.8334 21.141 13.7608C20.8116 13.5932 20.5333 13.5206 20.2239 13.5212C19.8416 13.522 19.4795 13.6166 19.1722 13.7961C19.0759 13.8524 18.9386 13.9327 18.867 13.9747C18.716 14.0634 18.5825 14.0725 18.4478 14.0033C18.2307 13.8916 18.1756 13.6686 18.3184 13.4797C18.4692 13.2804 18.9674 13.0028 19.4513 12.8485C19.853 12.7204 20.6624 12.7215 21.0537 12.8506C21.3118 12.9359 21.6741 13.1113 21.8292 13.226C22.0753 13.4082 22.1204 13.5009 22.1357 13.8564C22.1172 13.8844 22.0987 13.9124 22.0802 13.9404Z" fill="#1B3319"/>
<path d="M29.2379 15.0035C29.1986 14.9605 29.1593 14.9175 29.12 14.8745C28.9681 14.7085 28.6477 14.5513 28.2424 14.4439C28.1754 14.4263 27.9565 14.4116 27.7558 14.4113C27.4375 14.4109 27.3628 14.4201 27.1708 14.4833C27.0497 14.5232 26.8941 14.5558 26.825 14.5557C26.6852 14.5556 26.5416 14.4827 26.49 14.3855C26.4426 14.2961 26.4703 14.0382 26.5352 13.9657C26.6039 13.889 26.8547 13.7616 27.0492 13.7045C27.418 13.5964 28.1462 13.6023 28.5635 13.7167C28.789 13.7786 29.1814 13.9546 29.3897 14.0874C29.7869 14.3405 30.0985 14.7232 30.0614 14.9124C30.0532 14.9548 30.0454 15.0115 30.0424 15.0874C30.0332 15.0967 30.024 15.1061 30.0147 15.1154C30.0054 15.1154 29.9962 15.1154 29.987 15.1154C29.948 15.1387 29.9091 15.162 29.8701 15.1853C29.6421 15.3218 29.4283 15.2604 29.2379 15.0035Z" fill="#1B3319"/>
<path d="M26.3804 23.4524C26.3851 23.1 26.3804 23.0867 26.2788 22.9782C26.1938 22.8876 26.1429 22.8591 26.0269 22.8375C25.947 22.8226 25.8596 22.8183 25.8327 22.8278C25.7242 22.8664 25.5959 22.9904 25.4908 23.1582C25.2559 23.5333 24.8636 23.8153 24.3274 23.9948C23.7806 24.1778 23.1021 24.1676 22.504 23.9674C22.3226 23.9066 21.9975 23.7254 21.8044 23.5772C21.4943 23.3394 21.1744 22.9271 21.0782 22.641C21.0282 22.4925 20.9445 22.3871 20.8424 22.3441C20.6574 22.2662 20.4288 22.317 20.3557 22.4525C20.3371 22.4869 20.3217 22.5971 20.3214 22.6973C20.3208 22.9356 20.4173 23.1456 20.7028 23.5274C21.0243 23.9573 21.3436 24.2199 21.8519 24.4722C22.1578 24.624 22.3522 24.69 22.7183 24.7667C23.5664 24.9442 24.5795 24.82 25.2845 24.4519C25.3761 24.4041 25.4713 24.3479 25.4963 24.327C25.575 24.2608 25.749 24.1792 25.7161 24.2239C25.7063 24.2372 25.6966 24.2504 25.6868 24.2637C25.6602 24.2822 25.6335 24.3007 25.6068 24.3191C25.2549 24.5635 24.7758 24.7596 24.2996 24.8544C23.8916 24.9355 23.1947 24.9431 22.8271 24.8703C21.8308 24.6731 20.9991 24.1363 20.5026 23.3699C20.2706 23.0118 20.2229 22.8645 20.2214 22.5012C20.2324 22.4816 20.2435 22.462 20.2546 22.4424C20.3583 22.2591 20.624 22.1765 20.8411 22.2601C20.9827 22.3147 21.0404 22.3872 21.1743 22.6795C21.5062 23.404 22.1706 23.8844 23.0373 24.0267C23.617 24.1218 24.1337 24.0401 24.6738 23.7679C25.052 23.5772 25.2488 23.405 25.4514 23.0874C25.622 22.8199 25.7114 22.7529 25.8981 22.7529C26.0694 22.7529 26.2138 22.8154 26.3315 22.9405C26.4387 23.0543 26.4566 23.242 26.3804 23.4524Z" fill="#0D130D"/>
<path d="M27.4346 17.8011C27.4346 17.5789 27.4885 17.4142 27.5922 17.3196C27.6627 17.2552 27.8327 17.1856 27.9192 17.1856C27.9426 17.1856 27.966 17.1856 27.9895 17.1856C28.3198 17.2881 28.4683 17.5586 28.3766 17.8912C28.3399 18.0245 28.225 18.162 28.1095 18.2106C27.974 18.2677 27.743 18.2591 27.6355 18.1929C27.526 18.1256 27.4349 17.9827 27.4347 17.8781C27.4347 17.8524 27.4346 17.8268 27.4346 17.8011Z" fill="#FEFCEE"/>
<path d="M19.6943 16.9338C19.78 16.6765 19.8207 16.6197 19.9157 16.5469C20.0365 16.4544 20.0456 16.4521 20.2278 16.4689C20.2904 16.4747 20.353 16.4805 20.4156 16.4862C20.5515 16.5924 20.6649 16.8155 20.6644 16.9758C20.6634 17.3101 20.3409 17.5831 20.0505 17.4953C19.8218 17.4262 19.6943 17.2602 19.6943 17.0312C19.6943 16.9988 19.6943 16.9663 19.6943 16.9338Z" fill="#FEFCEE"/>
<path d="M22.1357 13.8564C22.1204 13.5009 22.0753 13.4081 21.8292 13.226C21.6741 13.1113 21.3118 12.9358 21.0537 12.8506C20.6624 12.7215 19.853 12.7204 19.4513 12.8485C18.9674 13.0028 18.4692 13.2803 18.3184 13.4797C18.1756 13.6686 18.2307 13.8916 18.4478 14.0033C18.5825 14.0725 18.716 14.0634 18.867 13.9747C18.9386 13.9327 19.0759 13.8523 19.1722 13.7961C19.4795 13.6166 19.8416 13.5219 20.2239 13.5212C20.5333 13.5205 20.8116 13.5932 21.141 13.7608C21.2837 13.8334 21.4504 13.9183 21.5115 13.9495C21.639 14.0146 21.8554 14.026 21.99 13.9747C22.0201 13.9632 22.0501 13.9518 22.0802 13.9404C22.0572 13.9607 22.0342 13.9811 22.0112 14.0015C21.9621 14.045 21.8961 14.0658 21.7823 14.0737C21.6117 14.0855 21.5829 14.0742 21.1348 13.8202C20.8785 13.6749 20.5788 13.6024 20.2214 13.5992C19.7631 13.5951 19.4182 13.6915 19.0562 13.9246C18.8061 14.0857 18.7175 14.1175 18.5608 14.1023C18.2963 14.0767 18.1684 13.9054 18.1684 13.5767C18.1791 13.5579 18.1898 13.5392 18.2005 13.5204C18.2979 13.3499 18.6872 13.0747 19.0423 12.9254C19.6207 12.6821 20.4087 12.6182 20.9919 12.7673C21.3135 12.8495 21.7843 13.0938 21.9738 13.2769C22.1888 13.4845 22.2212 13.6004 22.1357 13.8564Z" fill="#0D130D"/>
<path d="M21.664 18.6124C21.6203 18.6369 21.6164 18.5263 21.6266 18.3267C21.6681 17.5159 21.497 16.7747 21.1673 16.3366C20.911 15.9961 20.418 15.7635 20.0184 15.7945C19.4939 15.8352 19.0845 16.1147 18.7718 16.6454C18.7371 16.7042 18.7025 16.7631 18.6678 16.8219C18.6493 16.8127 18.6308 16.8033 18.6123 16.794C18.6637 16.7105 18.7152 16.6271 18.7666 16.5436C18.8516 16.4055 18.9921 16.2268 19.0797 16.145C19.5705 15.687 20.2591 15.5994 20.805 15.9256C21.2015 16.1626 21.4472 16.543 21.6133 17.1773C21.6724 17.4032 21.6771 17.4724 21.664 18.6124Z" fill="#0D130D"/>
<path d="M18.6678 16.8219C18.5859 16.9415 18.4467 17.3948 18.4039 17.6812C18.3077 18.3241 18.3818 19.1576 18.5697 19.5474C18.6766 19.769 18.8729 20.0798 18.9333 20.1229C18.9466 20.1323 18.9598 20.1417 18.973 20.1511C18.9545 20.1604 18.936 20.1698 18.9175 20.1791C18.8751 20.1308 18.8327 20.0824 18.7904 20.0341C18.6494 19.8733 18.4763 19.5473 18.4065 19.3116C18.3125 18.9937 18.2796 18.6325 18.2794 17.913C18.2897 17.8548 18.3 17.7964 18.3103 17.7382C18.3624 17.4429 18.4662 17.1183 18.6123 16.7939C18.6308 16.8032 18.6493 16.8126 18.6678 16.8219Z" fill="#030606"/>
<path d="M30.0425 15.0874C30.0455 15.0115 30.0532 14.9548 30.0614 14.9124C30.0985 14.7232 29.7869 14.3405 29.3897 14.0873C29.1814 13.9546 28.789 13.7785 28.5635 13.7167C28.1462 13.6023 27.418 13.5964 27.0493 13.7045C26.8547 13.7616 26.6039 13.889 26.5352 13.9657C26.4703 14.0382 26.4426 14.2961 26.49 14.3855C26.5416 14.4827 26.6852 14.5556 26.825 14.5557C26.8941 14.5558 27.0497 14.5232 27.1708 14.4833C27.3628 14.4201 27.4375 14.4109 27.7558 14.4113C27.9565 14.4115 28.1754 14.4263 28.2424 14.4439C28.6477 14.5513 28.9681 14.7085 29.12 14.8745C29.1593 14.9175 29.1986 14.9605 29.2379 15.0035C29.2264 14.9929 29.2148 14.9825 29.2032 14.972C29.1079 14.8852 28.7868 14.6932 28.6293 14.6286C28.2127 14.458 27.5329 14.4239 27.1294 14.5534C26.6493 14.7076 26.3808 14.5481 26.3804 14.1082C26.3988 14.076 26.4173 14.0439 26.4357 14.0118C26.5518 13.8098 26.7873 13.6918 27.2542 13.6021C27.738 13.509 28.2355 13.5426 28.7385 13.7024C29.3177 13.8865 29.9546 14.3639 30.0869 14.7132C30.1335 14.8364 30.1337 14.8503 30.0425 15.0874Z" fill="#0D130D"/>
<path d="M19.6388 16.9059C19.6573 16.9152 19.6758 16.9246 19.6943 16.9339C19.6943 16.9663 19.6943 16.9988 19.6943 17.0312C19.6943 17.2602 19.8218 17.4262 20.0505 17.4953C20.3409 17.5831 20.6634 17.3101 20.6644 16.9758C20.6649 16.8155 20.5515 16.5924 20.4156 16.4862C20.5263 16.4193 20.693 16.6336 20.7342 16.8957C20.7749 17.1552 20.6013 17.4352 20.3416 17.5291C20.1649 17.593 20.0967 17.5898 19.9272 17.5103C19.8084 17.4545 19.7738 17.4199 19.7122 17.2953C19.667 17.2038 19.6388 17.1004 19.6388 17.0263C19.6388 16.9862 19.6388 16.946 19.6388 16.9059Z" fill="#0D130D"/>
<path d="M27.3514 17.7452C27.3791 17.7638 27.4069 17.7824 27.4346 17.8011C27.4346 17.8268 27.4347 17.8524 27.4347 17.878C27.4349 17.9827 27.526 18.1256 27.6355 18.1929C27.7431 18.2591 27.974 18.2677 28.1095 18.2106C28.225 18.1619 28.3399 18.0245 28.3767 17.8912C28.4683 17.5586 28.3198 17.2881 27.9895 17.1856C28.062 17.0966 28.268 17.1999 28.3713 17.3772C28.436 17.488 28.4472 17.5385 28.4469 17.7172C28.4464 17.9892 28.3659 18.1486 28.1826 18.2413C27.9796 18.3439 27.8275 18.3516 27.6474 18.2685C27.4762 18.1895 27.3926 18.0679 27.366 17.8596C27.3611 17.8215 27.3563 17.7833 27.3514 17.7452Z" fill="#0D130D"/>
<path d="M20.9427 20.1232C21.0377 19.9638 21.0376 19.9603 20.9906 19.9647C20.9449 19.969 20.9444 19.9631 20.9835 19.8829C21.0066 19.8353 21.0515 19.7728 21.0832 19.7439C21.1416 19.6906 21.26 19.4543 21.2913 19.3286C21.3007 19.2909 21.3322 19.2383 21.3614 19.2116C21.4077 19.1694 21.4144 19.1688 21.4144 19.2073C21.4144 19.2314 21.4268 19.2586 21.4421 19.2676C21.4514 19.273 21.4606 19.2784 21.4698 19.2839C21.4429 19.3484 21.4161 19.4129 21.3892 19.4774C21.282 19.7347 21.1198 19.9693 20.9427 20.1232Z" fill="#2A3929"/>
<path d="M18.973 20.1511C19.2184 20.3752 19.4462 20.4788 19.7672 20.5122C20.0586 20.5427 20.141 20.5287 20.3876 20.4074C20.4865 20.3588 20.5863 20.3189 20.6094 20.3188C20.6325 20.3186 20.6661 20.3092 20.684 20.2978C20.702 20.2864 20.7176 20.2865 20.7187 20.298C20.7194 20.305 20.7201 20.312 20.7208 20.319C20.6768 20.342 20.6329 20.3651 20.589 20.3881C20.3788 20.4983 20.0382 20.5987 19.8746 20.5987C19.5893 20.5987 19.3093 20.4759 18.9175 20.1791C18.936 20.1698 18.9545 20.1604 18.973 20.1511Z" fill="#0D130D"/>
<path d="M29.4599 19.2559C29.4362 18.1328 29.3881 17.8758 29.1073 17.3744C28.8772 16.9636 28.626 16.7579 28.2031 16.6344C27.7777 16.5102 27.4242 16.5693 27.0212 16.8322C26.5881 17.1147 26.271 17.5587 26.1127 18.1042C25.9624 18.6216 25.9281 19.1184 26.0048 19.6621C26.0543 20.0131 26.0582 20.025 26.265 20.4589C26.3955 20.7327 26.6834 21.032 26.9214 21.1415C27.1456 21.2445 27.4629 21.308 27.6696 21.2912C27.7616 21.2838 27.9524 21.2376 28.0935 21.1887C28.2347 21.1398 28.3501 21.1067 28.3501 21.1151C28.3501 21.1201 28.3501 21.1252 28.3501 21.1303C28.3062 21.1526 28.2623 21.175 28.2184 21.1973C27.4498 21.5879 26.6058 21.2743 26.1781 20.4393C25.9613 20.016 25.8829 19.6082 25.881 18.8922C25.8903 18.8246 25.8996 18.757 25.9089 18.6894C25.9543 18.3591 26.0687 17.9514 26.1843 17.7075C26.4572 17.132 26.9319 16.7017 27.4556 16.5553C27.683 16.4917 28.0973 16.5107 28.3363 16.5957C28.8072 16.7633 29.1798 17.1973 29.371 17.8011C29.5098 18.2396 29.5317 18.5981 29.4599 19.2559Z" fill="#0D130D"/>
<path d="M28.5998 20.9345C28.8735 20.5927 28.8936 20.5537 28.8569 20.5406C28.8179 20.5267 28.8234 20.5069 28.896 20.4007C28.9425 20.3327 29.0186 20.2167 29.0652 20.1429C29.1446 20.0173 29.2048 19.9999 29.1655 20.114C29.1558 20.1421 29.1494 20.1746 29.1513 20.1861C29.1525 20.1931 29.1536 20.2001 29.1547 20.2071C29.1349 20.2465 29.1152 20.2859 29.0954 20.3253C28.9981 20.5194 28.8413 20.7122 28.5998 20.9345Z" fill="#2A3929"/>
<path d="M10.8996 23.1167C10.939 23.0925 11.0267 23.1243 11.1196 23.1717C11.265 23.2457 11.6055 23.3846 11.6895 23.4041C11.7043 23.4075 11.7238 23.3484 11.7329 23.2726C11.7463 23.1607 11.7367 23.1092 11.6816 22.9976C11.6231 22.8794 11.6161 22.8364 11.6313 22.6877C11.6564 22.443 11.6988 22.3053 11.7492 22.3053C11.7871 22.3053 11.7882 22.2429 11.76 21.7388C11.7247 21.1079 11.7223 20.8605 11.7491 20.6128C11.7591 20.5204 11.7655 20.3916 11.7632 20.3264C11.7595 20.2177 11.75 20.2033 11.6468 20.1502C11.5849 20.1184 11.4246 20.0217 11.2906 19.9353C11.2093 19.883 11.1281 19.8307 11.0469 19.7784C11.0335 19.8056 11.0202 19.8327 11.007 19.8599C10.9748 19.9254 10.9714 20.0067 10.9895 20.277C11.0108 20.5963 10.9949 21.5075 10.9672 21.5528C10.9601 21.5645 10.966 21.5814 10.9803 21.5904C10.9964 21.6004 10.9968 21.6406 10.9815 21.6942C10.9679 21.7423 10.9638 21.7934 10.9725 21.8076C10.9812 21.8218 10.9653 21.8507 10.937 21.8719C10.8939 21.9041 10.8912 21.9193 10.9198 21.9667C10.9413 22.0021 10.9439 22.0293 10.9268 22.0399C10.9118 22.0492 10.8996 22.0943 10.8996 22.1401C10.8996 22.2454 10.8257 22.3613 10.7587 22.3613C10.6608 22.3613 9.99611 22.0539 9.67889 21.862C9.62552 21.8297 9.54434 21.7825 9.49856 21.7571C9.45279 21.7316 9.32795 21.6466 9.22113 21.5682C8.4926 21.0332 7.64394 20.0942 7.238 19.374C6.82352 18.6386 6.58721 18.0734 6.50059 17.6107C6.45265 17.3543 6.35955 17.1297 6.30123 17.1297C6.28214 17.1297 6.2665 17.1189 6.2665 17.1057C6.2665 17.0926 6.35078 17.0741 6.45376 17.0646C6.6483 17.0465 6.86297 16.9836 6.86297 16.9445C6.86297 16.9321 6.81925 16.911 6.76587 16.8975C6.56812 16.8479 6.30373 16.7573 6.15552 16.6886C5.91255 16.5759 5.49502 16.2837 5.25016 16.055C5.04197 15.8606 4.55503 15.2744 4.41931 15.0549C4.38757 15.0035 4.34701 14.9647 4.32914 14.9685C4.31832 14.9708 4.30756 14.9732 4.29674 14.9755C4.27404 14.9312 4.25141 14.8869 4.22871 14.8426C4.05088 14.495 3.8635 13.7797 3.83426 13.3366C3.80763 12.9334 3.91649 12.6842 4.16257 12.585C4.37997 12.4972 4.64869 12.6066 5.01806 12.9332C5.05485 12.9807 5.09158 13.0283 5.12831 13.0758C5.22413 13.1998 5.34432 13.4239 5.44186 13.6606C5.46661 13.7207 5.47238 13.7233 5.4827 13.6791C5.4948 13.6273 5.37578 13.2905 5.2536 13.0311C5.21731 12.9542 5.14285 12.759 5.08808 12.5975C4.97511 12.2642 4.93172 11.8613 4.98687 11.6576C5.03404 11.4833 5.16959 11.3141 5.3133 11.25C5.83049 11.0193 6.25157 11.4724 6.71277 12.7558C6.80593 13.015 6.89527 13.227 6.91125 13.227C6.92795 13.227 6.89776 13.0719 6.84056 12.8633C6.69984 12.3506 6.6473 11.982 6.65939 11.592C6.66811 11.3106 6.67837 11.2525 6.73841 11.1441C6.77641 11.0755 6.86153 10.978 6.92756 10.9273C7.03304 10.8462 7.06822 10.835 7.21703 10.835C7.62019 10.835 7.8832 11.1312 8.037 11.7582C8.12889 12.1328 8.16301 12.5517 8.12889 12.8853C8.1128 13.0424 8.10231 13.2024 8.10553 13.2408C8.11075 13.3021 8.08045 13.327 7.85518 13.447C7.49041 13.6413 7.21831 13.9111 7.11788 14.1782C6.95874 14.601 6.94482 14.9784 7.07587 15.3182C7.12065 15.4345 7.15416 15.4108 7.15494 15.2623C7.15527 15.1892 7.18612 14.9733 7.22352 14.7825C7.32018 14.2889 7.45318 14.049 7.73516 13.8597C7.87387 13.7665 8.04383 13.6823 8.15036 13.6541C8.19281 13.6428 8.26294 13.438 8.26361 13.3234C8.26405 13.2428 8.52828 12.8006 8.66178 12.657C8.92978 12.3688 9.40657 12.3548 9.63589 12.6285C9.80879 12.8349 9.83159 12.9295 9.83043 13.4368C9.82943 13.8468 9.82105 13.9297 9.75513 14.1782C9.64166 14.6059 9.49784 14.9508 9.28356 15.3093C9.13446 15.5588 8.85942 15.9369 8.76343 16.0246C8.69268 16.0891 8.69363 16.121 8.77425 16.3904C9.10267 17.4883 9.60415 18.3176 10.4525 19.1663C10.9932 19.7072 11.2612 19.9025 11.8429 20.18C11.8777 20.1966 11.8856 20.3009 11.8983 21.4381C11.8983 21.5127 11.8983 21.5872 11.8983 21.6619C11.8892 21.6567 11.88 21.6515 11.8708 21.6464C11.853 21.6363 11.8431 21.8287 11.8429 22.753C11.8429 22.8182 11.8429 22.8836 11.8429 22.9488C11.8359 22.9488 11.829 22.9488 11.822 22.9487C11.8106 22.9487 11.7972 23.0681 11.7924 23.214C11.7876 23.36 11.7723 23.4864 11.7585 23.4951C11.7447 23.5036 11.705 23.4922 11.6702 23.4695C11.6355 23.4468 11.5257 23.3976 11.4264 23.3601C11.3269 23.3227 11.1678 23.2526 10.8996 23.1167Z" fill="#2B4422"/>
<path d="M4.29674 14.9755C4.30756 14.9732 4.31832 14.9708 4.32914 14.9685C4.34701 14.9647 4.38757 15.0036 4.41931 15.0549C4.55503 15.2744 5.04197 15.8606 5.25016 16.055C5.49502 16.2837 5.91255 16.5759 6.15552 16.6886C6.30373 16.7573 6.56812 16.8479 6.76587 16.8976C6.81925 16.911 6.86297 16.9321 6.86297 16.9445C6.86297 16.9836 6.6483 17.0466 6.45376 17.0646C6.35078 17.0741 6.2665 17.0926 6.2665 17.1058C6.2665 17.119 6.28214 17.1297 6.30123 17.1297C6.35955 17.1297 6.45265 17.3543 6.50059 17.6107C6.58721 18.0734 6.82352 18.6386 7.238 19.374C7.64394 20.0943 8.4926 21.0332 9.22113 21.5682C9.32794 21.6466 9.45279 21.7316 9.49856 21.7571C9.54434 21.7825 9.62552 21.8297 9.67889 21.862C9.99611 22.054 10.6608 22.3613 10.7587 22.3613C10.8257 22.3613 10.8996 22.2454 10.8996 22.1401C10.8996 22.0943 10.9118 22.0493 10.9268 22.04C10.9439 22.0293 10.9413 22.0021 10.9198 21.9667C10.8912 21.9193 10.8939 21.9041 10.937 21.8719C10.9653 21.8507 10.9812 21.8218 10.9725 21.8076C10.9638 21.7934 10.9679 21.7424 10.9815 21.6942C10.9968 21.6406 10.9964 21.6004 10.9803 21.5904C10.966 21.5814 10.9601 21.5645 10.9672 21.5528C10.9949 21.5075 11.0108 20.5963 10.9895 20.2771C10.9714 20.0067 10.9748 19.9254 11.007 19.8599C11.0202 19.8327 11.0335 19.8056 11.0468 19.7784C11.1281 19.8307 11.2093 19.883 11.2906 19.9354C11.4246 20.0217 11.5849 20.1184 11.6468 20.1502C11.75 20.2033 11.7595 20.2177 11.7632 20.3265C11.7655 20.3916 11.7591 20.5205 11.7491 20.6128C11.7223 20.8605 11.7247 21.108 11.76 21.7388C11.7882 22.2429 11.7871 22.3053 11.7492 22.3053C11.6988 22.3053 11.6564 22.443 11.6313 22.6877C11.6161 22.8365 11.6231 22.8794 11.6816 22.9977C11.7367 23.1092 11.7463 23.1608 11.7329 23.2727C11.7238 23.3484 11.7043 23.4076 11.6895 23.4042C11.6055 23.3846 11.265 23.2457 11.1196 23.1717C11.0267 23.1243 10.939 23.0926 10.8996 23.1167C10.8558 23.097 10.8119 23.0774 10.768 23.0577C10.2729 22.8362 9.35963 22.1651 8.75649 21.5797C8.21212 21.0513 7.78626 20.5146 7.2936 19.7358C6.76776 18.9046 6.49843 18.2861 6.23903 17.3144C6.21445 17.2221 6.18976 17.1298 6.16512 17.0374C6.08472 17.0025 6.00427 16.9675 5.92387 16.9326C5.56881 16.7783 5.2036 16.4743 4.91624 16.0939C4.75061 15.8747 4.4248 15.2865 4.29674 14.9755Z" fill="#1B3319"/>
<path d="M5.01806 12.9332C5.15455 13.0221 5.15677 13.0215 5.15677 12.9567C5.15677 12.9199 5.13968 12.8649 5.11876 12.8345C5.09784 12.8042 5.04663 12.6849 5.00496 12.5695C4.94304 12.3978 4.92661 12.2961 4.91446 12.0095C4.90026 11.6744 4.9027 11.6532 4.97045 11.5183C5.13452 11.1919 5.38399 11.0658 5.68883 11.1553C6.03373 11.2565 6.28664 11.5244 6.46031 11.9725C6.52817 12.1476 6.58942 12.2533 6.61051 12.2318C6.61689 12.2252 6.60851 12.1073 6.59192 11.9698C6.54831 11.6081 6.59625 11.2476 6.71077 11.0765C6.7571 11.0073 6.83523 10.9152 6.88444 10.8719C6.96756 10.7987 6.99064 10.7931 7.20976 10.7933C7.4797 10.7936 7.56553 10.8282 7.73632 11.0056C7.85983 11.134 8.01569 11.4231 8.08072 11.6446C8.19586 12.0366 8.24624 12.6216 8.19602 12.9822C8.17721 13.1172 8.17999 13.1291 8.23092 13.1291C8.26544 13.1291 8.2979 13.1 8.31698 13.0521C8.36243 12.9382 8.52378 12.6892 8.61456 12.5928C8.71798 12.483 8.85093 12.4159 9.04507 12.3755C9.17802 12.3478 9.22379 12.35 9.34459 12.3899C9.75002 12.5236 9.91576 12.8205 9.91343 13.4088C9.9101 14.2743 9.48341 15.3476 8.88472 15.9966C8.84172 16.0433 8.79866 16.0899 8.75566 16.1365C8.77558 16.1967 8.79544 16.2569 8.81536 16.317C8.86608 16.4705 8.92245 16.6233 9.03769 16.9199C9.09146 17.058 9.41228 17.7129 9.46949 17.8011C9.50444 17.855 9.58123 17.9746 9.64022 18.0669C10.0051 18.6383 10.7226 19.4036 11.1876 19.7175C11.2332 19.7483 11.2974 19.7923 11.3303 19.8154C11.5216 19.9497 11.6422 20.0228 11.7299 20.058C11.7844 20.0799 11.8571 20.1097 11.8914 20.1244C11.9122 20.1334 11.933 20.1423 11.9538 20.1511C11.9353 20.5801 11.9168 21.0091 11.8983 21.4381C11.8856 20.3009 11.8777 20.1966 11.8429 20.18C11.2612 19.9025 10.9932 19.7072 10.4525 19.1663C9.60415 18.3176 9.10267 17.4883 8.77424 16.3904C8.69362 16.121 8.69268 16.0891 8.76342 16.0246C8.85942 15.9369 9.13446 15.5588 9.28355 15.3093C9.49784 14.9508 9.64166 14.6059 9.75513 14.1782C9.82105 13.9297 9.82943 13.8468 9.83043 13.4368C9.83159 12.9295 9.80878 12.8349 9.63589 12.6285C9.40656 12.3548 8.92977 12.3688 8.66178 12.657C8.52828 12.8006 8.26405 13.2428 8.26361 13.3234C8.26294 13.438 8.19281 13.6428 8.15036 13.6541C8.04383 13.6823 7.87387 13.7665 7.73516 13.8597C7.45318 14.049 7.32017 14.2889 7.22352 14.7825C7.18612 14.9733 7.15527 15.1892 7.15494 15.2623C7.15416 15.4108 7.12065 15.4345 7.07587 15.3182C6.94481 14.9784 6.95874 14.601 7.11787 14.1782C7.2183 13.9111 7.49041 13.6413 7.85517 13.447C8.08045 13.327 8.11074 13.3021 8.10553 13.2408C8.10231 13.2024 8.1128 13.0424 8.12889 12.8853C8.16301 12.5517 8.12889 12.1328 8.037 11.7582C7.88319 11.1312 7.62019 10.835 7.21703 10.835C7.06821 10.835 7.03303 10.8462 6.92756 10.9273C6.86153 10.978 6.77641 11.0755 6.7384 11.1441C6.67837 11.2525 6.6681 11.3106 6.65939 11.592C6.64729 11.982 6.69984 12.3506 6.84055 12.8633C6.89776 13.0719 6.92794 13.227 6.91124 13.227C6.89526 13.227 6.80593 13.015 6.71277 12.7558C6.25157 11.4724 5.83048 11.0193 5.3133 11.25C5.16959 11.3141 5.03403 11.4833 4.98687 11.6576C4.93172 11.8613 4.97511 12.2642 5.08808 12.5975C5.14284 12.759 5.21731 12.9542 5.25359 13.0311C5.37577 13.2905 5.49479 13.6273 5.4827 13.6791C5.47238 13.7233 5.46661 13.7207 5.44186 13.6606C5.34431 13.4239 5.22413 13.1998 5.12831 13.0759C5.09157 13.0283 5.05484 12.9807 5.01806 12.9332Z" fill="#0D130D"/>
<path d="M11.8151 23.5643C11.522 23.4969 10.7883 23.1726 10.4141 22.945C10.3683 22.9172 10.2934 22.8737 10.2476 22.8484C10.1356 22.7865 9.75014 22.5227 9.59566 22.4022C9.52703 22.3487 9.43881 22.283 9.39969 22.2562C9.16321 22.0941 8.26039 21.2091 8.00687 20.8908C7.93413 20.7994 7.83675 20.6782 7.79048 20.6214C7.63789 20.4343 7.20549 19.7813 7.03159 19.4755C6.75982 18.9975 6.45193 18.2935 6.32376 17.8571C6.28986 17.7417 6.24608 17.6032 6.22649 17.5493C6.20685 17.4955 6.175 17.3822 6.15574 17.2976C6.12057 17.143 6.06242 17.0458 6.00516 17.0458C5.95405 17.0458 5.62291 16.8768 5.49102 16.7835C5.35375 16.6864 4.94659 16.2789 4.79611 16.0881C4.68209 15.9435 4.58388 15.793 4.38957 15.4651C4.21856 15.1765 3.96931 14.5084 3.85207 14.0243C3.76951 13.6836 3.74909 13.1677 3.80885 12.9333C3.88531 12.6335 4.09155 12.4661 4.34978 12.4941C4.55885 12.5167 4.71965 12.603 4.87646 12.7765C4.92362 12.8287 4.97084 12.881 5.01806 12.9332C4.64869 12.6066 4.37997 12.4972 4.16257 12.585C3.91649 12.6842 3.80763 12.9334 3.83426 13.3366C3.8635 13.7797 4.05088 14.495 4.22871 14.8426C4.2514 14.8869 4.27404 14.9313 4.29674 14.9755C4.4248 15.2864 4.75061 15.8747 4.91624 16.0939C5.2036 16.4743 5.56881 16.7783 5.92387 16.9326C6.00427 16.9675 6.08472 17.0025 6.16512 17.0374C6.18976 17.1298 6.21445 17.2221 6.23903 17.3143C6.49843 18.2861 6.76776 18.9046 7.2936 19.7358C7.78626 20.5146 8.21212 21.0513 8.75649 21.5797C9.35962 22.1651 10.2729 22.8362 10.768 23.0577C10.8119 23.0774 10.8558 23.097 10.8996 23.1167C11.1678 23.2526 11.3269 23.3227 11.4264 23.3601C11.5257 23.3976 11.6355 23.4468 11.6702 23.4695C11.705 23.4922 11.7447 23.5036 11.7585 23.4951C11.7723 23.4864 11.7876 23.36 11.7924 23.214C11.7972 23.0681 11.8106 22.9487 11.822 22.9487C11.829 22.9488 11.8359 22.9488 11.8429 22.9488C11.8336 23.1539 11.8244 23.3591 11.8151 23.5643Z" fill="#030606"/>
<path d="M38.8925 32.4887C39.1613 32.3782 39.2518 32.3348 39.267 32.3209C39.284 32.3055 39.249 32.2951 39.1769 32.2943C39.0943 32.2933 39.059 32.281 39.059 32.2533C39.059 32.2315 39.0728 32.209 39.0896 32.2033C39.1301 32.1897 39.0307 31.688 38.9029 31.26C38.8504 31.0843 38.7953 30.8863 38.7806 30.8202C38.7471 30.6695 38.4194 29.9378 38.2695 29.6792C38.0002 29.2142 37.7146 28.8413 37.6426 28.8603C37.6176 28.8668 37.5827 28.8488 37.5649 28.8201C37.5387 28.7778 37.5405 28.7679 37.5744 28.7679C37.5974 28.7679 37.6163 28.7505 37.6163 28.7291C37.6163 28.7079 37.6405 28.6841 37.67 28.6763C37.7097 28.6659 37.7195 28.646 37.7076 28.6003C37.6937 28.5464 37.7072 28.5343 37.8123 28.5062C37.9083 28.4807 37.9287 28.4813 37.9118 28.5091C37.8622 28.5904 37.9928 28.5365 38.1126 28.4262C38.4526 28.1131 38.6622 27.6675 38.7811 27.0053C38.799 26.9053 38.8252 26.7631 38.8392 26.6893C38.8832 26.4576 38.8727 26.4101 38.7381 26.2339C38.5549 25.9942 37.9793 25.3827 37.9367 25.3827C37.893 25.3827 37.7679 26.091 37.7144 26.6416C37.6896 26.8965 37.5827 27.524 37.5583 27.5579C37.5499 27.5695 37.5415 27.5812 37.5331 27.5928C37.5559 27.4413 37.5787 27.2897 37.6016 27.1382C37.6392 26.8882 37.6832 26.564 37.6992 26.4178C37.731 26.127 37.7924 25.7295 37.8525 25.426C37.8653 25.3611 37.8781 25.2963 37.8909 25.2314C37.9385 25.2776 37.9861 25.3238 38.0337 25.37C38.175 25.5073 38.5738 25.9578 38.9183 26.3695C39.2794 26.801 39.8493 27.7043 40.2169 28.4278C40.4406 28.8679 40.8262 29.808 40.9556 30.2283C41.166 30.9119 41.3288 31.6833 41.3589 32.1394C41.3726 32.3464 41.3976 32.5076 41.4239 32.559C41.5433 32.7924 41.7317 33.2801 41.7797 33.48C41.8476 33.7628 41.9165 34.3367 41.9165 34.6203C41.9165 34.9535 41.8417 35.4509 41.7485 35.7386C41.5716 36.2847 41.3192 36.6173 40.9455 36.7971C40.9079 36.8066 40.8704 36.8161 40.8328 36.8256C40.7387 36.8494 40.6991 36.8447 40.5929 36.7974C40.4509 36.7341 40.4116 36.6936 40.3342 36.5313C40.2813 36.4202 40.2588 36.2213 40.3023 36.2484C40.3327 36.2673 40.3736 36.141 40.4462 35.8039C40.4794 35.6501 40.5234 35.4644 40.5441 35.3913C40.5648 35.3182 40.5727 35.2584 40.5616 35.2584C40.5504 35.2584 40.4998 35.3434 40.4492 35.4472C40.3094 35.734 39.9382 36.3044 39.785 36.4676C39.4701 36.8031 38.9514 36.7375 38.7474 36.3363C38.697 36.2371 38.6929 36.1941 38.7094 35.9357C38.7309 35.6014 38.769 35.4867 38.9486 35.2164C39.2424 34.7741 39.4474 34.4431 39.4473 34.4111C39.4473 34.3925 39.363 34.4684 39.26 34.58C39.1571 34.6915 39.0011 34.8269 38.7538 34.9786C38.7105 34.9926 38.6673 35.0066 38.624 35.0206C38.2669 35.136 37.8594 34.9932 37.7569 34.7167C37.67 34.4829 37.7114 34.0461 37.8497 33.7337C37.9271 33.5592 38.1926 33.1322 38.2238 33.1322C38.2336 33.1322 38.2914 33.0676 38.3521 32.9887C38.4128 32.9097 38.5592 32.765 38.8925 32.4887Z" fill="#2B4422"/>
<path d="M37.4221 28.7958C37.4128 28.7772 37.4036 28.7585 37.3944 28.7399C37.399 28.6676 37.4037 28.5953 37.4085 28.523C37.4162 28.4038 37.4475 28.1457 37.5331 27.5928C37.5415 27.5812 37.5499 27.5695 37.5583 27.5579C37.5827 27.524 37.6896 26.8965 37.7144 26.6416C37.7679 26.091 37.893 25.3827 37.9367 25.3827C37.9793 25.3827 38.5549 25.9941 38.7381 26.2338C38.8727 26.41 38.8832 26.4575 38.8392 26.6892C38.8252 26.763 38.799 26.9053 38.7811 27.0053C38.6622 27.6675 38.4526 28.1131 38.1126 28.4262C37.9928 28.5365 37.8622 28.5904 37.9118 28.5091C37.9287 28.4813 37.9083 28.4807 37.8123 28.5062C37.7072 28.5342 37.6937 28.5464 37.7076 28.6003C37.7195 28.646 37.7097 28.6658 37.67 28.6763C37.6405 28.6841 37.6163 28.7079 37.6163 28.7291C37.6163 28.7504 37.5974 28.7678 37.5744 28.7678C37.5405 28.7678 37.5387 28.7777 37.5649 28.82C37.5827 28.8487 37.6176 28.8668 37.6426 28.8603C37.7146 28.8412 38.0002 29.2142 38.2695 29.6792C38.4194 29.9378 38.7471 30.6695 38.7806 30.8201C38.7953 30.8863 38.8504 31.0843 38.9029 31.26C39.0307 31.688 39.1301 32.1897 39.0896 32.2033C39.0728 32.2089 39.0589 32.2314 39.0589 32.2533C39.0589 32.281 39.0943 32.2933 39.1769 32.2943C39.249 32.2951 39.284 32.3055 39.267 32.3208C39.2518 32.3348 39.1613 32.3781 38.8925 32.4887C38.9144 32.4702 38.9363 32.4517 38.9581 32.4332C39.0157 32.3844 39.0208 32.3648 38.9999 32.2723C38.9867 32.2144 38.937 31.9907 38.8895 31.7753C38.7161 30.9898 38.42 30.2273 38.0506 29.6151C37.8194 29.2319 37.7489 29.14 37.4221 28.7958Z" fill="#1B3319"/>
<path d="M37.8105 25.1029C38.5998 25.8422 38.9702 26.2551 39.3503 26.8185C39.4418 26.9542 39.5502 27.1116 39.5911 27.1682C39.7304 27.3611 40.0499 27.9024 40.1966 28.1943C40.2276 28.2559 40.2649 28.3251 40.2795 28.3482C40.3078 28.3929 40.5658 28.9531 40.7179 29.3005C40.8351 29.5681 41.0818 30.312 41.1906 30.7262C41.296 31.1278 41.4332 31.8553 41.4718 32.2185C41.4937 32.4234 41.5266 32.5558 41.6008 32.7361C41.788 33.1913 41.866 33.4721 41.9706 34.067C42.03 34.4047 41.9957 35.0994 41.9009 35.4822C41.7626 36.0403 41.4989 36.525 41.2387 36.6992C41.1556 36.7547 41.0369 36.8184 40.9749 36.8406C40.9374 36.8541 40.8998 36.8676 40.8623 36.881C40.89 36.853 40.9177 36.8251 40.9455 36.7971C41.3192 36.6173 41.5716 36.2847 41.7485 35.7386C41.8418 35.4509 41.9165 34.9534 41.9165 34.6203C41.9165 34.3367 41.8476 33.7628 41.7797 33.48C41.7317 33.2801 41.5433 32.7924 41.4239 32.559C41.3976 32.5076 41.3726 32.3464 41.3589 32.1393C41.3288 31.6833 41.166 30.9119 40.9556 30.2283C40.8262 29.808 40.4406 28.8679 40.217 28.4278C39.8493 27.7043 39.2794 26.801 38.9183 26.3695C38.5738 25.9578 38.175 25.5073 38.0337 25.37C37.9861 25.3238 37.9385 25.2776 37.8909 25.2313C37.8781 25.2963 37.8653 25.3611 37.8525 25.426C37.7924 25.7295 37.731 26.127 37.6992 26.4178C37.6832 26.564 37.6392 26.8882 37.6016 27.1382C37.5787 27.2897 37.5559 27.4413 37.5331 27.5928C37.4475 28.1457 37.4162 28.4038 37.4085 28.5231C37.4037 28.5953 37.399 28.6676 37.3944 28.7399C37.3666 28.7212 37.3389 28.7026 37.3111 28.6839C37.3488 28.4065 37.3863 28.129 37.4239 27.8516C37.4859 27.3938 37.5546 26.8872 37.5764 26.7256C37.5981 26.564 37.6598 26.1328 37.8105 25.1029Z" fill="#030606"/>
<path d="M40.8623 36.881C40.5675 36.881 40.51 36.8648 40.3809 36.7447C40.2403 36.6139 40.1554 36.3237 40.2106 36.162C40.2879 35.935 40.1912 35.9877 40.0443 36.2525C39.8858 36.5384 39.5891 36.7411 39.3293 36.7411C39.0184 36.7411 38.821 36.6307 38.698 36.3879C38.638 36.2695 38.6289 36.2147 38.6289 35.9718C38.6289 35.748 38.6414 35.6598 38.6914 35.5311C38.7122 35.4775 38.733 35.4239 38.7538 35.3703C38.779 35.3353 38.8042 35.3003 38.8294 35.2654C38.871 35.2077 38.921 35.1321 38.9757 35.0346C38.9757 34.9323 38.9629 34.9226 38.9202 34.9347C38.9018 34.9401 38.8832 34.9453 38.8648 34.9506C38.8277 34.96 38.7908 34.9693 38.7538 34.9786C39.0011 34.8269 39.1571 34.6915 39.26 34.5799C39.363 34.4684 39.4473 34.3924 39.4473 34.4111C39.4474 34.4431 39.2424 34.7741 38.9486 35.2164C38.769 35.4867 38.7309 35.6014 38.7094 35.9357C38.6929 36.1941 38.697 36.2371 38.7474 36.3362C38.9514 36.7374 39.4701 36.8031 39.785 36.4676C39.9382 36.3044 40.3094 35.734 40.4492 35.4472C40.4998 35.3434 40.5504 35.2584 40.5616 35.2584C40.5727 35.2584 40.5648 35.3181 40.5442 35.3913C40.5234 35.4644 40.4794 35.65 40.4462 35.8039C40.3736 36.141 40.3327 36.2673 40.3023 36.2484C40.2588 36.2213 40.2813 36.4202 40.3342 36.5313C40.4116 36.6936 40.4509 36.7341 40.5929 36.7974C40.6991 36.8447 40.7387 36.8494 40.8328 36.8256C40.8704 36.8161 40.9079 36.8066 40.9455 36.7971C40.9177 36.8251 40.89 36.853 40.8623 36.881Z" fill="#0D130D"/>
<path d="M38.8647 34.9507C38.6005 35.123 38.4081 35.1693 38.1741 35.1169C37.5753 34.9829 37.4451 34.3482 37.8534 33.5529C37.9853 33.296 38.0974 33.1388 38.3376 32.8743C38.4938 32.7023 38.7624 32.4811 38.8813 32.4264C38.9766 32.3826 38.976 32.3746 38.8256 31.6774C38.804 31.5774 38.7353 31.3445 38.673 31.1598C38.6107 30.9752 38.5561 30.8115 38.5517 30.7962C38.5307 30.7224 38.3275 30.2052 38.3098 30.1807C38.2987 30.1653 38.2241 30.0268 38.144 29.8729C37.9789 29.5557 37.8309 29.3262 37.5892 29.0127C37.5335 28.9404 37.4778 28.8681 37.4221 28.7958C37.7489 29.1401 37.8194 29.2319 38.0506 29.6151C38.42 30.2273 38.7161 30.9899 38.8895 31.7753C38.937 31.9907 38.9867 32.2144 38.9999 32.2724C39.0208 32.3648 39.0157 32.3844 38.9581 32.4332C38.9363 32.4517 38.9143 32.4702 38.8925 32.4887C38.5592 32.765 38.4128 32.9097 38.3521 32.9887C38.2914 33.0676 38.2336 33.1322 38.2238 33.1322C38.1926 33.1322 37.9271 33.5592 37.8497 33.7337C37.7114 34.0461 37.67 34.4829 37.7568 34.7167C37.8594 34.9932 38.2669 35.136 38.624 35.0206C38.6673 35.0066 38.7105 34.9926 38.7538 34.9786C38.7908 34.9693 38.8277 34.96 38.8647 34.9507Z" fill="#030606"/>
<path d="M38.7538 35.3703C38.8345 35.1942 38.8798 35.1183 38.9313 35.0734C38.9461 35.0604 38.9609 35.0475 38.9757 35.0346C38.921 35.1322 38.871 35.2077 38.8294 35.2654C38.8042 35.3004 38.779 35.3353 38.7538 35.3703Z" fill="#030606"/>
<path d="M18.1938 32.125C18.2355 32.9493 18.1752 33.3425 17.9843 33.494C17.9465 33.5238 17.8513 33.5553 17.7716 33.5641C17.3693 33.6084 15.7411 33.6711 14.9086 33.6742C14.5942 33.6754 14.2798 33.6765 13.9654 33.6777C13.9135 33.6532 13.8617 33.6287 13.8098 33.6042C13.7224 33.5628 13.6225 33.4886 13.5818 33.4348C13.4472 33.2569 13.4422 33.1652 13.476 31.5102C13.4931 30.6713 13.5138 29.2421 13.5218 28.3342C13.5299 27.4264 13.5439 26.4157 13.5529 26.0882C13.5584 25.8897 13.5639 25.6913 13.5693 25.4928C13.5955 25.4791 13.6218 25.4655 13.648 25.4517C13.7604 25.3932 14.0256 25.401 14.245 25.4694C15.0096 25.7075 15.9397 26.4275 16.582 27.2784C17.4874 28.4778 18.1033 30.3296 18.1938 32.125Z" fill="#D6D9B4"/>
<path d="M0.0476362 10.3094C0.0743805 10.2589 0.139411 10.1908 0.192122 10.1581C0.324679 10.076 0.876377 9.94742 1.73064 9.79937C2.86367 9.60309 2.96521 9.5816 2.96521 9.53762C2.96521 9.51983 2.91527 9.41906 2.85424 9.31375C2.7932 9.20839 2.74326 9.11708 2.74326 9.11081C2.74326 9.10449 2.70947 9.04613 2.66819 8.981C2.62685 8.91593 2.54423 8.76821 2.48464 8.65284C2.425 8.53746 2.36146 8.4241 2.34338 8.40105C2.32534 8.378 2.27496 8.28982 2.23146 8.20521C2.18801 8.12061 2.14046 8.0359 2.12587 8.01704C2.11133 7.99813 2.065 7.91633 2.023 7.8352C1.98089 7.75401 1.92068 7.64362 1.88911 7.58973C1.68781 7.24601 1.43934 6.70624 1.43934 6.61257C1.43934 6.46726 1.58194 6.32911 1.74906 6.3125C1.99209 6.28832 2.12998 6.44046 2.50079 7.14211C2.56171 7.25748 2.63989 7.40229 2.67435 7.46384C2.70886 7.52539 2.77173 7.63869 2.81412 7.71563C2.85651 7.79256 2.91383 7.89328 2.94146 7.93944C2.96909 7.9856 3.03545 8.10523 3.08889 8.20521C3.14232 8.3052 3.23659 8.47519 3.29835 8.5829C3.3601 8.69061 3.42291 8.80391 3.43795 8.83468C3.45299 8.86546 3.488 8.92841 3.5158 8.97457C3.54354 9.02073 3.63076 9.18266 3.70961 9.33434C3.83118 9.56828 3.85299 9.63341 3.85299 9.76238C3.85299 9.84609 3.83523 9.94915 3.81354 9.99151C3.75727 10.1012 3.52884 10.2038 3.18715 10.2728C2.44664 10.4223 2.00724 10.505 1.44456 10.6008C1.28725 10.6276 1.13738 10.6665 1.11164 10.6873C1.06786 10.7226 1.06814 10.7273 1.11519 10.759C1.24159 10.8444 1.45182 11.0099 1.60791 11.1469C2.03326 11.5203 2.14967 11.6208 2.4437 11.8689C2.87627 12.2339 2.91827 12.2868 2.93014 12.4817C2.93586 12.5758 2.9252 12.6672 2.90373 12.7082C2.86761 12.7771 2.68057 12.9218 2.62186 12.9264C2.60472 12.9276 2.43465 12.974 2.24389 13.0294C2.05313 13.0847 1.84716 13.1439 1.78613 13.1609C1.53378 13.2312 1.45637 13.2598 1.45116 13.2847C1.44816 13.2991 1.59498 13.4494 1.77747 13.6187C1.95997 13.7879 2.2051 14.017 2.32223 14.1279C2.39326 14.1951 2.46422 14.2622 2.53519 14.3294C2.53519 14.3856 2.53519 14.4418 2.53519 14.4981C2.53519 14.65 2.52653 14.6754 2.44758 14.7551C2.32246 14.8812 2.12809 14.899 1.96085 14.7996C1.79989 14.7039 0.635901 13.5129 0.538911 13.3447C0.474991 13.2337 0.464725 13.1908 0.479706 13.0964C0.489694 13.0336 0.510501 12.9584 0.525927 12.9293C0.564878 12.8558 0.731226 12.7554 0.912221 12.6961C0.996116 12.6686 1.07729 12.6372 1.09255 12.6264C1.10781 12.6155 1.1952 12.5846 1.28675 12.5577C1.65274 12.45 1.88323 12.3679 1.88323 12.3452C1.88323 12.3321 1.83202 12.286 1.76943 12.2427C1.64952 12.1597 1.49388 12.0318 1.23071 11.8002C1.14338 11.7233 1.03052 11.6289 0.980025 11.5904C0.667638 11.3525 0.129145 10.8439 0.0485794 10.7106C-0.01584 10.6041 -0.0162284 10.4302 0.0476362 10.3094Z" fill="#FCDA04"/>
</svg>
