<svg width="20" height="20" viewBox="0 0 20 20" fill="none" xmlns="http://www.w3.org/2000/svg">
<path d="M17.4995 6.60089L10.478 11.5159C10.1911 11.7168 9.80891 11.7168 9.52197 11.5159L2.49951 6.59991V15.0003C2.49969 15.4566 2.87718 15.8333 3.3335 15.8333H16.6665C17.1228 15.8333 17.4993 15.4566 17.4995 15.0003V6.60089ZM3.3335 4.16632C3.00986 4.16632 2.72603 4.35623 2.58838 4.62921L9.99951 9.81573L17.4097 4.62823C17.2717 4.35602 16.9896 4.16632 16.6665 4.16632H3.3335ZM19.1665 15.0003C19.1663 16.3771 18.0433 17.5003 16.6665 17.5003H3.3335C1.9567 17.5003 0.833673 16.3771 0.833496 15.0003V5.00031C0.833496 3.6234 1.95659 2.50031 3.3335 2.50031H16.6665C18.0434 2.50031 19.1665 3.6234 19.1665 5.00031V15.0003Z" fill="currentColor"/>
</svg>
